<svg width="24" height="24" viewBox="0 0 24 24" fill="none" xmlns="http://www.w3.org/2000/svg">
<path fill-rule="evenodd" clip-rule="evenodd" d="M10.7452 0.0694449C10.5777 0.106671 10.246 0.236962 10.0079 0.35904C8.49444 1.1352 7.86249 3.07732 8.59795 4.69233C8.67472 4.86096 8.82971 5.12485 8.94231 5.27871C9.05496 5.43262 10.2605 6.7124 11.6214 8.12271L14.0956 10.6868L16.7244 7.95262L19.3531 5.21835L19.564 4.75667C19.9087 4.00189 19.9964 3.38003 19.8589 2.66482C19.4654 0.617824 17.4713 -0.511689 15.5655 0.233026C15.1919 0.379014 14.7785 0.652329 14.4066 0.999221L14.0844 1.29965L13.8551 1.05666C13.0697 0.224375 11.8255 -0.17058 10.7452 0.0694449ZM7.26226 12.5097C6.21495 12.715 5.41153 13.1612 4.56249 14.0093C4.292 14.2795 3.15481 15.4364 2.03537 16.5802L0 18.6598L2.57312 21.3299L5.14624 24L6.0164 23.1017L6.88661 22.2033H11.4548C15.8676 22.2033 16.0355 22.2 16.3934 22.1062C16.8085 21.9973 17.3106 21.7536 17.6371 21.5025C17.8862 21.3109 23.8541 14.3894 23.9398 14.1927C24.0821 13.8662 23.9629 13.4238 23.6799 13.2276C23.0774 12.8101 22.2469 12.8064 21.4612 13.218C21.0025 13.4582 19.5558 14.6481 17.0519 16.8447L15.9816 17.7836L13.7157 17.7701L11.4498 17.7566L11.3223 17.6243C11.1451 17.4404 11.1458 17.1803 11.3239 17.0213L11.453 16.9062L12.9141 16.9058C13.7177 16.9056 14.5117 16.8824 14.6787 16.8543C15.3285 16.7449 15.8824 16.3453 16.1416 15.7989C16.2771 15.5131 16.2954 15.4276 16.2949 15.0844C16.2945 14.7538 16.2737 14.6508 16.1589 14.4073C15.9975 14.065 15.7062 13.7617 15.3685 13.5845C14.9209 13.3495 14.6027 13.3119 13.0403 13.309C11.353 13.3061 11.1379 13.2756 10.3428 12.928C9.53449 12.5745 9.12755 12.4803 8.30957 12.457C7.83449 12.4434 7.51978 12.4592 7.26226 12.5097Z" fill="white"/>
</svg>
