<svg width="187" height="162" viewBox="0 0 187 162" fill="none" xmlns="http://www.w3.org/2000/svg">
    <path fill-rule="evenodd" clip-rule="evenodd"
          d="M69.918 0.340966C55.9172 0.340966 53.1978 6.10963 48.9098 20.4496L47.6758 24.5766L33.5188 25.0026C17.3448 25.4896 12.2828 27.1306 6.93178 33.6226C0.393785 41.5536 0.53479 40.5286 0.13079 83.3216C-0.46821 146.787 0.490782 152.076 13.8668 159.064C13.8668 159.064 17.0909 160.84 19.2168 161.859H94.918L170.577 161.322C172.542 160.209 175.498 158.286 175.498 158.286C178.813 156.241 181.479 153.482 183.669 149.83L186.919 144.41V94.0836C186.919 39.1746 187.043 40.4496 181.032 33.6036C175.369 27.1526 170.317 25.4946 154.438 24.8706L140.458 24.3216L137.938 17.3336C130.418 -5.65625 121.417 1.16011 69.918 0.340966ZM102.807 50.8826C130.4 57.2436 145.239 87.2436 133.288 112.507C117.897 145.042 71.2778 145.229 54.9188 112.822C38.8988 81.0856 68.3858 42.9466 102.807 50.8826ZM84.2428 67.3986C64.7588 74.5866 59.9718 101.821 75.8848 114.948C97.3778 132.676 128.288 112.244 120.501 85.4556C116.316 71.0606 98.4428 62.1596 84.2428 67.3986Z"
          fill="#ABAAAB"/>
</svg>
