<svg width="24" height="24" viewBox="0 0 24 24" fill="none" xmlns="http://www.w3.org/2000/svg">
<path fill-rule="evenodd" clip-rule="evenodd" d="M11.0772 0.015272C10.9787 0.0271384 10.7024 0.0608453 10.4632 0.0902045C8.36265 0.348146 6.16711 1.28145 4.47575 2.63545C2.33538 4.34893 0.781618 6.87587 0.235024 9.53236C0.0433243 10.4643 -0.00135095 10.9389 3.07559e-05 12.03C0.00248713 13.9992 0.360708 15.5427 1.22259 17.2983C2.97889 20.8759 6.28456 23.2791 10.3096 23.9046C11.129 24.0319 12.8692 24.0318 13.6871 23.9043C15.8675 23.5646 17.868 22.6967 19.521 21.3734C21.8774 19.487 23.4229 16.7788 23.9043 13.6923C24.0316 12.8766 24.032 11.1363 23.905 10.3165C23.5679 8.13898 22.6939 6.14291 21.3401 4.45859C19.4803 2.14489 16.7277 0.571154 13.7383 0.112505C13.2266 0.0340435 11.4589 -0.0305571 11.0772 0.015272ZM12.3966 4.46273C12.6489 4.56805 12.8599 4.77193 12.976 5.02266C13.065 5.21477 13.0708 5.4209 13.0719 8.39876L13.0731 11.5703L14.6136 13.1044C15.6117 14.0984 16.1878 14.7106 16.25 14.8432C16.6499 15.6959 15.7483 16.6339 14.8753 16.2735C14.6144 16.1658 11.1556 12.7241 11.0219 12.4392C10.931 12.2454 10.9259 12.0492 10.9249 8.74207C10.9239 5.69858 10.934 5.2251 11.0032 5.05938C11.2315 4.51317 11.8664 4.24131 12.3966 4.46273Z" fill="#FEED01"/>
</svg>
