<svg width="164" height="39" viewBox="0 0 164 39" fill="none" xmlns="http://www.w3.org/2000/svg">
<path d="M8.704 33.5C8.58667 33.116 8.45333 32.7213 8.304 32.316C8.16533 31.9107 8.02667 31.5053 7.888 31.1H3.568C3.42933 31.5053 3.28533 31.9107 3.136 32.316C2.99733 32.7213 2.86933 33.116 2.752 33.5H0.16C0.576 32.3053 0.970667 31.2013 1.344 30.188C1.71733 29.1747 2.08 28.22 2.432 27.324C2.79467 26.428 3.14667 25.58 3.488 24.78C3.84 23.9693 4.20267 23.18 4.576 22.412H6.96C7.32267 23.18 7.68 23.9693 8.032 24.78C8.384 25.58 8.736 26.428 9.088 27.324C9.45067 28.22 9.81867 29.1747 10.192 30.188C10.5653 31.2013 10.96 32.3053 11.376 33.5H8.704ZM5.712 24.924C5.65867 25.084 5.57867 25.3027 5.472 25.58C5.36533 25.8573 5.24267 26.1773 5.104 26.54C4.96533 26.9027 4.81067 27.3027 4.64 27.74C4.48 28.1773 4.31467 28.636 4.144 29.116H7.296C7.12533 28.636 6.96 28.1773 6.8 27.74C6.64 27.3027 6.48533 26.9027 6.336 26.54C6.19733 26.1773 6.07467 25.8573 5.968 25.58C5.86133 25.3027 5.776 25.084 5.712 24.924ZM15.0353 28.028C15.2699 27.804 15.5153 27.5587 15.7713 27.292C16.0379 27.0253 16.2939 26.764 16.5393 26.508C16.7846 26.2413 17.0193 25.9853 17.2433 25.74C17.4673 25.4947 17.6646 25.276 17.8353 25.084H20.7313C20.5179 25.308 20.2513 25.5853 19.9313 25.916C19.6219 26.2467 19.2913 26.5933 18.9393 26.956C18.5873 27.308 18.2299 27.66 17.8673 28.012C17.5153 28.364 17.1793 28.6787 16.8593 28.956C17.1793 29.2013 17.5206 29.5053 17.8833 29.868C18.2459 30.2307 18.5979 30.62 18.9393 31.036C19.2913 31.452 19.6219 31.8733 19.9313 32.3C20.2513 32.7267 20.5233 33.1267 20.7473 33.5H18.0273C17.8353 33.212 17.6166 32.9133 17.3713 32.604C17.1259 32.284 16.8699 31.9747 16.6033 31.676C16.3366 31.3667 16.0646 31.0787 15.7873 30.812C15.5206 30.5453 15.2699 30.316 15.0353 30.124V33.5H12.6513V25.084H15.0353V28.028ZM25.086 31.836C25.3207 31.836 25.5447 31.8307 25.758 31.82C25.9713 31.8093 26.142 31.7933 26.27 31.772V29.964C26.174 29.9427 26.03 29.9213 25.838 29.9C25.646 29.8787 25.47 29.868 25.31 29.868C25.086 29.868 24.8727 29.884 24.67 29.916C24.478 29.9373 24.3073 29.9853 24.158 30.06C24.0087 30.1347 23.8913 30.236 23.806 30.364C23.7207 30.492 23.678 30.652 23.678 30.844C23.678 31.2173 23.8007 31.4787 24.046 31.628C24.302 31.7667 24.6487 31.836 25.086 31.836ZM24.894 24.86C25.598 24.86 26.1847 24.94 26.654 25.1C27.1233 25.26 27.4967 25.4893 27.774 25.788C28.062 26.0867 28.2647 26.4493 28.382 26.876C28.4993 27.3027 28.558 27.7773 28.558 28.3V33.26C28.2167 33.3347 27.742 33.42 27.134 33.516C26.526 33.6227 25.79 33.676 24.926 33.676C24.382 33.676 23.886 33.628 23.438 33.532C23.0007 33.436 22.622 33.2813 22.302 33.068C21.982 32.844 21.7367 32.556 21.566 32.204C21.3953 31.852 21.31 31.42 21.31 30.908C21.31 30.4173 21.406 30.0013 21.598 29.66C21.8007 29.3187 22.0673 29.0467 22.398 28.844C22.7287 28.6413 23.1073 28.4973 23.534 28.412C23.9607 28.316 24.4033 28.268 24.862 28.268C25.1713 28.268 25.4433 28.284 25.678 28.316C25.9233 28.3373 26.1207 28.3693 26.27 28.412V28.188C26.27 27.7827 26.1473 27.4573 25.902 27.212C25.6567 26.9667 25.23 26.844 24.622 26.844C24.2167 26.844 23.8167 26.876 23.422 26.94C23.0273 26.9933 22.686 27.0733 22.398 27.18L22.094 25.26C22.2327 25.2173 22.4033 25.1747 22.606 25.132C22.8193 25.0787 23.0487 25.036 23.294 25.004C23.5393 24.9613 23.7953 24.9293 24.062 24.908C24.3393 24.876 24.6167 24.86 24.894 24.86ZM29.9138 31.548H30.9538C31.2524 31.1853 31.4818 30.7373 31.6418 30.204C31.8124 29.66 31.9298 29.0893 31.9938 28.492C32.0684 27.884 32.1111 27.2813 32.1218 26.684C32.1324 26.0867 32.1378 25.5533 32.1378 25.084H38.6978V31.548H40.1218V35.9H38.0898V33.5H31.9457V35.9H29.9138V31.548ZM36.3138 31.548V27.036H34.3618C34.3404 27.4093 34.3138 27.7987 34.2818 28.204C34.2604 28.5987 34.2124 28.9933 34.1378 29.388C34.0738 29.772 33.9831 30.1507 33.8658 30.524C33.7484 30.8973 33.5938 31.2387 33.4018 31.548H36.3138ZM41.1575 29.356C41.1575 28.6093 41.2695 27.9587 41.4935 27.404C41.7282 26.8387 42.0322 26.3693 42.4055 25.996C42.7788 25.6227 43.2055 25.34 43.6855 25.148C44.1762 24.956 44.6775 24.86 45.1895 24.86C46.3842 24.86 47.3282 25.228 48.0215 25.964C48.7148 26.6893 49.0615 27.7613 49.0615 29.18C49.0615 29.3187 49.0562 29.4733 49.0455 29.644C49.0348 29.804 49.0242 29.948 49.0135 30.076H43.6055C43.6588 30.5667 43.8882 30.956 44.2935 31.244C44.6988 31.532 45.2428 31.676 45.9255 31.676C46.3628 31.676 46.7895 31.6387 47.2055 31.564C47.6322 31.4787 47.9788 31.3773 48.2455 31.26L48.5655 33.196C48.4375 33.26 48.2668 33.324 48.0535 33.388C47.8402 33.452 47.6002 33.5053 47.3335 33.548C47.0775 33.6013 46.8002 33.644 46.5015 33.676C46.2028 33.708 45.9042 33.724 45.6055 33.724C44.8482 33.724 44.1868 33.612 43.6215 33.388C43.0668 33.164 42.6028 32.86 42.2295 32.476C41.8668 32.0813 41.5948 31.6173 41.4135 31.084C41.2428 30.5507 41.1575 29.9747 41.1575 29.356ZM46.7575 28.444C46.7468 28.2413 46.7095 28.044 46.6455 27.852C46.5922 27.66 46.5015 27.4893 46.3735 27.34C46.2562 27.1907 46.1015 27.068 45.9095 26.972C45.7282 26.876 45.4988 26.828 45.2215 26.828C44.9548 26.828 44.7255 26.876 44.5335 26.972C44.3415 27.0573 44.1815 27.1747 44.0535 27.324C43.9255 27.4733 43.8242 27.6493 43.7495 27.852C43.6855 28.044 43.6375 28.2413 43.6055 28.444H46.7575ZM53.2693 28.652C53.2479 29.0253 53.2266 29.4307 53.2053 29.868C53.1839 30.3053 53.1626 30.748 53.1413 31.196C53.1306 31.6333 53.1146 32.0547 53.0933 32.46C53.0826 32.8547 53.0719 33.2013 53.0613 33.5H50.7413C50.7626 32.9133 50.7946 32.252 50.8372 31.516C50.8906 30.78 50.9439 30.0333 50.9973 29.276C51.0613 28.508 51.1253 27.7613 51.1893 27.036C51.2639 26.3107 51.3333 25.66 51.3973 25.084H53.3813C53.8399 25.8307 54.2613 26.604 54.6453 27.404C55.0293 28.204 55.4346 29.084 55.8613 30.044C56.3093 29.02 56.7466 28.076 57.1733 27.212C57.5999 26.3373 57.9839 25.628 58.3253 25.084H60.3413C60.4159 25.66 60.4853 26.3107 60.5493 27.036C60.6239 27.7613 60.6879 28.508 60.7413 29.276C60.8053 30.0333 60.8586 30.78 60.9013 31.516C60.9439 32.252 60.9759 32.9133 60.9973 33.5H58.6293C58.6079 32.668 58.5759 31.8413 58.5333 31.02C58.5013 30.1987 58.4693 29.404 58.4373 28.636L56.6773 32.508H55.0293L53.2693 28.652ZM65.4571 33.5H63.0731V25.084H65.4571V33.5ZM65.6811 22.652C65.6811 23.0893 65.5371 23.436 65.2491 23.692C64.9718 23.9373 64.6411 24.06 64.2571 24.06C63.8731 24.06 63.5371 23.9373 63.2491 23.692C62.9718 23.436 62.8331 23.0893 62.8331 22.652C62.8331 22.2147 62.9718 21.8733 63.2491 21.628C63.5371 21.372 63.8731 21.244 64.2571 21.244C64.6411 21.244 64.9718 21.372 65.2491 21.628C65.5371 21.8733 65.6811 22.2147 65.6811 22.652ZM71.1861 30.508C70.8448 31.0093 70.5408 31.516 70.2741 32.028C70.0075 32.5293 69.7515 33.02 69.5061 33.5H67.0581C67.3675 32.8067 67.6821 32.172 68.0021 31.596C68.3221 31.02 68.6315 30.524 68.9301 30.108C68.4821 29.8733 68.1248 29.5747 67.8581 29.212C67.5915 28.8387 67.4581 28.3747 67.4581 27.82C67.4581 26.8813 67.7941 26.1613 68.4661 25.66C69.1488 25.1587 70.0875 24.908 71.2821 24.908C71.5488 24.908 71.8421 24.9187 72.1621 24.94C72.4928 24.9613 72.8181 24.9933 73.1381 25.036C73.4581 25.0787 73.7621 25.1267 74.0501 25.18C74.3488 25.2227 74.5995 25.2707 74.8021 25.324V33.5H72.4181V30.508H71.1861ZM72.4181 26.796C72.3115 26.7853 72.1461 26.7747 71.9221 26.764C71.6981 26.7427 71.5061 26.732 71.3461 26.732C70.7595 26.732 70.3595 26.8333 70.1461 27.036C69.9328 27.228 69.8261 27.4787 69.8261 27.788C69.8261 27.98 69.8688 28.1453 69.9541 28.284C70.0395 28.412 70.1515 28.5187 70.2901 28.604C70.4288 28.6787 70.5835 28.732 70.7541 28.764C70.9248 28.796 71.0955 28.812 71.2661 28.812H72.4181V26.796Z" fill="#FEED01"/>
<mask id="mask0_2241_11721" style="mask-type:alpha" maskUnits="userSpaceOnUse" x="80" y="0" width="8" height="39">
<path fill-rule="evenodd" clip-rule="evenodd" d="M84.9109 38.9984C84.469 38.9984 84.2527 38.8319 84.2714 38.5565C84.2844 38.3785 84.3403 38.1856 84.4354 38.0274C84.6368 37.6944 84.6722 37.363 84.5566 37.0053C84.5119 36.8701 84.4895 36.7283 84.469 36.5899C84.4354 36.3657 84.5175 36.181 84.7039 36.0162C85.0526 35.7145 85.0115 35.3155 84.5976 35.0798C84.4242 34.9809 84.2173 34.9199 84.0159 34.8737C83.3746 34.7254 82.832 34.4319 82.3883 34.0099C82.2149 33.8484 82.1086 33.6291 81.9818 33.4313C81.8494 33.2252 81.732 33.0109 81.6033 32.8015C81.2491 32.2246 81.3703 31.8322 82.0303 31.5322C82.4125 31.3574 82.8152 31.2157 83.2105 31.064C83.6915 30.8777 84.0364 30.5826 84.2415 30.1491C84.3571 29.9067 84.5007 29.6677 84.6778 29.4583C84.9612 29.122 85.2782 29.1105 85.6641 29.3578C85.8319 29.4649 86.0221 29.5474 86.2141 29.6149C86.5441 29.7336 86.6131 29.9414 86.3558 30.159C86.257 30.2414 86.1284 30.3024 86.0034 30.3551C85.8487 30.4194 85.6678 30.4425 85.5299 30.5233C85.3938 30.6041 85.2949 30.7359 85.1793 30.8447C85.3024 30.9239 85.4124 31.0244 85.5466 31.0739C85.886 31.1975 86.0016 31.3377 85.9661 31.6591C85.9624 31.6937 85.9587 31.73 85.9456 31.763C85.7741 32.2246 85.9643 32.5559 86.3875 32.8428C86.5758 32.9697 86.7119 33.1725 86.8275 33.362C86.9338 33.5351 86.8518 33.7033 86.6765 33.8302C86.2812 34.1187 86.2663 34.2852 86.505 34.6924C86.6784 34.9858 86.8536 35.2925 86.9338 35.6123C87.0885 36.2338 86.9226 36.8388 86.5534 37.368C86.2141 37.8526 85.7965 38.2977 85.3788 38.7362C85.2427 38.8797 85.006 38.9473 84.9109 39" fill="url(#paint0_linear_2241_11721)"/>
<path fill-rule="evenodd" clip-rule="evenodd" d="M87.0102 24.1287C86.9562 24.3215 86.9338 24.5276 86.8387 24.704C86.7157 24.9381 86.5012 24.9579 86.2719 24.7996C86.257 24.7897 86.2439 24.7732 86.2272 24.7666C86.0948 24.7056 85.9606 24.6463 85.8263 24.5869C85.8058 24.7304 85.7816 24.8721 85.7648 25.0156C85.7611 25.0485 85.7816 25.0831 85.7928 25.1178C85.9978 25.8036 85.6977 26.1811 84.881 26.2124C84.6181 26.2239 84.3459 26.1613 84.0886 26.0953C83.712 25.9981 83.6263 26.0245 83.5386 26.3492C83.4361 26.7333 83.1639 26.8636 82.6717 26.7861C82.2279 26.7168 81.7823 26.6509 81.3349 26.613C81.0571 26.5883 80.7737 26.6179 80.494 26.6245C80.1826 26.6328 80.0186 26.5157 80.0018 26.2421C79.9925 26.0855 80.0223 25.9255 80.0335 25.7689C80.0558 25.4887 80.0931 25.2084 80.0931 24.9298C80.0931 24.6018 80.1733 24.4353 80.5406 24.366C80.8464 24.31 81.1764 24.3149 81.4896 24.3463C81.8662 24.3809 82.2335 24.5128 82.6101 24.5227C82.8954 24.5292 83.2068 24.4518 83.4622 24.3364C83.7195 24.2226 83.8966 24.2061 84.0998 24.3924C84.18 24.465 84.3142 24.4946 84.4224 24.5424C84.4765 24.4353 84.538 24.3298 84.5771 24.2177C84.6014 24.1534 84.5827 24.0776 84.5865 24.0067C84.6051 23.6374 84.6629 23.578 85.0824 23.4956C85.4646 23.4214 85.8468 23.3489 86.229 23.278C86.656 23.1989 86.8219 23.2912 86.9096 23.6704C86.9431 23.8171 86.9506 23.9671 86.9711 24.1171C86.9841 24.1204 86.9972 24.1237 87.0102 24.127" fill="url(#paint1_linear_2241_11721)"/>
<path fill-rule="evenodd" clip-rule="evenodd" d="M85.1924 27.9763C85.1514 28.2088 85.0843 28.4412 85.0749 28.6753C85.0675 28.8797 84.9724 28.9358 84.7636 28.9292C84.4951 28.9209 84.2266 28.9275 83.9525 28.9275C83.9488 28.9671 83.9376 28.9935 83.9414 29.0165C84.0346 29.4781 83.9246 29.6215 83.4063 29.7617C82.7257 29.9447 82.0471 30.1309 81.3721 30.3271C80.7364 30.5117 80.4642 30.3156 80.4977 29.7303C80.5108 29.4765 80.4138 29.2177 80.3635 28.9621C80.3262 28.766 80.2404 28.5665 80.2553 28.3736C80.274 28.1131 80.5387 27.9466 80.906 27.9219C81.6052 27.8758 82.3062 27.8345 83.0054 27.7983C83.093 27.7933 83.1881 27.8082 83.2702 27.8345C83.6412 27.9532 83.9395 27.8461 83.9637 27.5032C84.0122 26.8339 84.6648 26.7581 85.1402 26.5108C85.2166 26.4712 85.3993 26.5306 85.4982 26.5883C85.9139 26.8355 86.3204 27.0927 86.7231 27.3581C87.0214 27.5559 87.0587 27.7554 86.8387 28.0175C86.697 28.1857 86.5367 28.3538 86.3502 28.4808C85.9997 28.7181 85.6566 28.6192 85.4814 28.2648C85.4292 28.1577 85.3583 28.0587 85.2968 27.9565C85.2595 27.9631 85.2241 27.9697 85.1905 27.978" fill="url(#paint2_linear_2241_11721)"/>
<path fill-rule="evenodd" clip-rule="evenodd" d="M81.5325 20.9552C82.4144 20.9668 83.1788 21.1119 83.8649 21.5108C83.8891 21.524 83.9152 21.5388 83.9432 21.5504C84.441 21.7828 84.7729 21.6179 84.7934 21.1283C84.8158 20.6404 84.9817 20.5629 85.4646 20.7937C85.5988 20.858 85.7666 20.9074 85.9158 20.9025C86.2533 20.8893 86.4677 21.0261 86.6262 21.2668C86.6709 21.3361 86.7101 21.4069 86.7418 21.4811C86.999 22.0565 86.9506 22.1273 86.2607 22.129C85.9289 22.129 85.7182 22.2477 85.5839 22.518C85.3285 23.0357 85.3136 23.0406 84.6834 22.9862C84.4131 22.9631 84.208 23.0505 84.042 23.2154C83.753 23.4973 83.4305 23.5302 83.0091 23.4511C82.3454 23.3275 81.6667 23.2467 80.9881 23.2071C80.123 23.1577 79.9608 22.9566 80.2852 22.2411C80.4343 21.9163 80.522 21.5701 80.6786 21.2487C80.7345 21.1349 80.8967 21.0278 81.0365 20.9882C81.2118 20.9388 81.4132 20.9602 81.5325 20.9552Z" fill="url(#paint3_linear_2241_11721)"/>
<path fill-rule="evenodd" clip-rule="evenodd" d="M85.0675 18.7413C85.1066 18.6473 85.1607 18.5418 85.2017 18.4313C85.28 18.2055 85.418 18.0324 85.7051 17.9928C85.9811 17.9549 86.1228 18.1165 86.2645 18.283C86.4379 18.4874 86.6112 18.6902 86.7977 18.8847C87.0345 19.132 86.9543 19.6908 86.6318 19.8557C86.5796 19.8837 86.4379 19.8425 86.3894 19.793C86.2794 19.6809 86.2123 19.5359 86.1078 19.4188C86.0463 19.3496 85.927 19.254 85.8599 19.2688C85.7666 19.2886 85.6772 19.3891 85.6212 19.4732C85.5634 19.5622 85.5541 19.6743 85.5131 19.7732C85.4105 20.0271 85.2614 20.0799 84.9761 19.9711C84.5902 19.8211 84.5622 19.8244 84.3944 20.1607C84.2695 20.4112 84.0644 20.4788 83.7847 20.4063C83.3522 20.2942 82.929 20.1574 82.4908 20.065C82.2 20.004 81.8923 20.0156 81.594 19.9793C81.1801 19.9282 81.0552 19.6776 81.2435 19.3463C81.3982 19.0743 81.5399 18.7957 81.6611 18.5121C81.8028 18.1824 82.0583 18.0852 82.5132 18.1989C83.0129 18.3242 83.5163 18.4495 84.0215 18.5533C84.1931 18.5896 84.3851 18.5451 84.5604 18.5731C84.7076 18.5962 84.8456 18.6671 85.0656 18.7446" fill="url(#paint4_linear_2241_11721)"/>
<path fill-rule="evenodd" clip-rule="evenodd" d="M86.0482 10.9075C86.0724 10.8712 86.1078 10.7954 86.1675 10.7377C86.2607 10.647 86.3689 10.5003 86.4714 10.5003C86.6001 10.5003 86.794 10.5959 86.8499 10.6965C86.9879 10.9437 87.137 11.135 87.4558 11.2372C87.5565 11.2702 87.6423 11.4911 87.6292 11.6163C87.5938 11.9559 87.6572 12.2642 87.8492 12.5577C87.8828 12.6104 87.9257 12.6813 87.9089 12.7291C87.8753 12.828 87.8026 12.9187 87.7467 13.0126C87.6665 12.9566 87.5882 12.9005 87.508 12.8445C87.5006 12.8395 87.4969 12.8297 87.4931 12.8214C87.3757 12.5906 87.3216 12.2889 87.1221 12.1472C86.9338 12.012 86.5889 12.0565 86.3185 12.0005C86.1078 11.9559 86.0817 12.0763 86.0389 12.195C85.9195 12.5395 85.8804 12.523 85.4888 12.5181C85.0041 12.5115 84.5175 12.5758 84.0308 12.6153C83.9134 12.6252 83.7978 12.6698 83.6803 12.6895C83.4827 12.7209 83.3764 12.6632 83.382 12.4686C83.3932 12.0483 83.4547 11.6246 83.2441 11.2174C83.1657 11.0657 83.2776 10.9487 83.4547 10.8943C83.492 10.8811 83.533 10.8646 83.5703 10.8679C84.2658 10.9289 84.9463 10.8762 85.6175 10.6915C85.7144 10.6635 85.8767 10.8168 86.0482 10.9075Z" fill="url(#paint5_linear_2241_11721)"/>
<path fill-rule="evenodd" clip-rule="evenodd" d="M86.8741 17.739C86.8368 17.5922 86.8126 17.5016 86.7865 17.4109C86.7268 17.2197 86.6019 17.1224 86.3595 17.1043C86.1228 17.0878 85.8934 17.0153 85.6604 16.9691C85.3229 16.9032 85.2241 16.9658 85.1812 17.2642C85.1197 17.6928 84.909 17.7983 84.4354 17.6862C83.8575 17.5477 83.272 17.4274 82.6847 17.3202C82.2335 17.2378 82.0993 16.9988 82.3491 16.6592C82.5523 16.3839 82.7593 16.1185 82.7276 15.7591C82.7239 15.6997 82.8898 15.5679 82.9662 15.5745C83.1602 15.5893 83.3485 15.6668 83.5386 15.7162C83.8537 15.797 84.167 15.9108 84.4876 15.9454C84.6759 15.9668 84.9071 15.8959 85.0749 15.8052C85.2595 15.703 85.3844 15.6997 85.5131 15.8432C85.6827 16.0278 85.8673 16.0311 86.0967 15.9239C86.4789 15.7475 86.5367 15.769 86.7697 16.0937C86.8331 16.1828 86.8872 16.28 86.9636 16.3624C87.3365 16.7597 87.1109 17.1834 87.0345 17.6005C87.027 17.6401 86.9562 17.6697 86.8723 17.7406" fill="url(#paint6_linear_2241_11721)"/>
<path fill-rule="evenodd" clip-rule="evenodd" d="M87.4372 14.8392C87.4074 15.0848 87.385 15.3305 87.3421 15.5728C87.3309 15.6305 87.2563 15.6816 87.2135 15.7344C87.1519 15.6948 87.055 15.6651 87.0363 15.6124C86.9636 15.4228 86.9077 15.2266 86.8629 15.0288C86.8257 14.8606 86.7772 14.7156 86.5329 14.7271C86.505 14.7271 86.464 14.7271 86.4453 14.7123C86.1134 14.4287 85.9307 14.615 85.7107 14.8557C85.6119 14.9645 85.3938 15.0156 85.2222 15.0403C85.0712 15.0634 84.9071 15.0041 84.7468 14.9958C84.3273 14.9678 83.9097 14.9414 83.492 14.9249C83.1266 14.9117 82.9551 14.7601 83.0837 14.4749C83.2459 14.1205 83.2329 13.7743 83.1881 13.4116C83.1546 13.133 83.2813 13.0588 83.5554 13.2022C84.0886 13.4825 84.6349 13.4726 85.2092 13.3341C85.3192 13.3061 85.4814 13.344 85.5821 13.4033C85.8394 13.5567 85.9046 13.5567 86.0836 13.3259C86.1116 13.2896 86.1265 13.2385 86.1656 13.2171C86.2607 13.166 86.3782 13.0802 86.464 13.0967C86.5516 13.1149 86.6579 13.2335 86.6728 13.3193C86.7026 13.4957 86.8499 13.5649 86.9543 13.6836C87.165 13.9193 87.2955 14.2144 87.426 14.4963C87.4708 14.5919 87.4204 14.7222 87.413 14.8376C87.4204 14.8376 87.4279 14.8376 87.4353 14.8392" fill="url(#paint7_linear_2241_11721)"/>
<path fill-rule="evenodd" clip-rule="evenodd" d="M83.1937 9.62987C83.1937 9.53261 83.1937 9.43534 83.1937 9.33973C83.1937 9.08915 83.3466 8.95397 83.6169 8.95397C84.0663 8.95397 84.4709 8.78912 84.8941 8.71329C85.2726 8.64735 85.5075 8.59954 85.7014 8.27148C85.8524 8.01102 86.2328 8.04729 86.5162 8.23027C86.6224 8.29786 86.7641 8.33743 86.8984 8.35391C87.1184 8.37864 87.2657 8.46601 87.2974 8.65394C87.357 8.99189 87.5491 9.25895 87.8064 9.50128C87.8865 9.57712 87.9686 9.67108 87.9947 9.76999C88.017 9.85407 87.963 9.95463 87.9443 10.0502C87.8362 10.0255 87.6908 10.0338 87.6292 9.97441C87.4913 9.83758 87.3924 9.67108 87.2843 9.51118C87.1575 9.32654 87.0084 9.24906 86.738 9.29687C86.4938 9.33808 86.2234 9.31665 85.9792 9.27049C85.7238 9.22268 85.6287 9.29357 85.5895 9.50293C85.5094 9.94309 85.5 9.93155 85.006 10.0321C84.5976 10.1162 84.1968 10.2365 83.7922 10.3305C83.4063 10.4195 83.2496 10.3206 83.2105 9.97441C83.1993 9.86066 83.2086 9.74527 83.2086 9.63152H83.1956L83.1937 9.62987Z" fill="url(#paint8_linear_2241_11721)"/>
<path fill-rule="evenodd" clip-rule="evenodd" d="M84.9538 6.9741C85.0395 6.84221 85.0899 6.78616 85.116 6.72022C85.2782 6.30644 85.7629 6.17126 86.0855 6.49767C86.3241 6.74 86.5982 6.87518 86.917 6.98563C87.0419 7.03015 87.1706 7.10268 87.2619 7.1917C87.3328 7.26094 87.3477 7.37304 87.3887 7.467C87.2769 7.48019 87.1538 7.5247 87.0569 7.49833C86.8853 7.45382 86.7287 7.36809 86.5721 7.29226C86.0724 7.04828 86.0202 7.06312 85.8524 7.53954C85.7928 7.70769 85.6716 7.77198 85.4683 7.76868C85.3397 7.76868 85.2092 7.81979 85.0824 7.85111C84.9388 7.88738 84.799 7.93519 84.6554 7.9698C84.318 8.05223 83.9768 8.12147 83.6449 8.21544C83.3391 8.30116 83.2534 8.26819 83.1807 7.99288C83.1322 7.8132 83.0874 7.63186 83.0185 7.45876C82.9364 7.25105 83.0073 7.09938 83.2254 7.03015C83.4491 6.95926 83.6897 6.93123 83.9227 6.88013C84.0961 6.84221 84.277 6.81089 84.4392 6.7499C84.6685 6.66088 84.8736 6.5735 84.9538 6.97574" fill="url(#paint9_linear_2241_11721)"/>
<path fill-rule="evenodd" clip-rule="evenodd" d="M82.515 5.54647C82.5878 5.47723 82.6698 5.33381 82.7947 5.29425C83.1229 5.19369 83.4696 5.14588 83.8052 5.0651C83.9507 5.03048 84.1147 4.99586 84.2285 4.91674C84.5566 4.69089 84.7785 4.76177 84.9071 5.11456C84.9538 5.24479 85.0917 5.38986 85.2334 5.44921C85.5746 5.59428 85.9456 5.68165 86.2924 5.81848C86.3912 5.85639 86.4416 5.98498 86.5124 6.074C86.3912 6.09708 86.2514 6.16302 86.147 6.13664C85.7331 6.03114 85.3285 5.89926 84.9239 5.77232C84.7132 5.70638 84.5436 5.71462 84.3907 5.88607C84.3161 5.97014 84.1819 6.0196 84.0681 6.06576C83.7791 6.18115 83.4808 6.27677 83.1993 6.40041C83.0203 6.47789 82.873 6.468 82.7984 6.30974C82.694 6.08389 82.6251 5.8465 82.5169 5.54647" fill="url(#paint10_linear_2241_11721)"/>
<path fill-rule="evenodd" clip-rule="evenodd" d="M84.0607 3.43141C84.1017 3.30283 84.1092 3.23029 84.1464 3.17259C84.1968 3.09511 84.262 2.97477 84.331 2.97147C84.428 2.96488 84.5473 3.03412 84.6293 3.09511C84.6853 3.13468 84.7188 3.21711 84.7282 3.28305C84.7841 3.68858 85.0843 3.88805 85.4851 4.01994C85.6865 4.08588 85.9009 4.16666 85.8692 4.49306C85.6548 4.42053 85.4683 4.36613 85.2893 4.29524C85.0619 4.20457 84.8438 4.09577 84.6182 4.0051C84.4392 3.93256 84.3031 3.99191 84.1651 4.1139C84.0532 4.21117 83.9003 4.2903 83.7493 4.33975C83.423 4.44855 83.0818 4.52603 82.7556 4.63319C82.3976 4.74859 82.2876 4.68924 82.2578 4.34635C82.2484 4.21446 82.2186 4.08423 82.1962 3.954C82.1645 3.76606 82.2111 3.64572 82.4722 3.65232C82.8395 3.66056 83.162 3.5633 83.4007 3.29953C83.6524 3.02258 83.8425 3.2171 84.0607 3.43141Z" fill="url(#paint11_linear_2241_11721)"/>
<path fill-rule="evenodd" clip-rule="evenodd" d="M83.4827 1.84388C83.6841 1.51253 83.7978 1.51912 84.1054 1.84718C84.277 2.02852 84.5212 2.16205 84.7412 2.30712C84.8848 2.40109 85.0563 2.46208 85.1943 2.56099C85.2446 2.59726 85.239 2.69617 85.2595 2.76706C85.1775 2.77695 85.0824 2.81487 85.0134 2.79179C84.8643 2.74233 84.7282 2.6632 84.5883 2.59396C84.2639 2.43735 83.9507 2.40603 83.6263 2.60715C83.5163 2.67474 83.369 2.73079 83.2385 2.73244C82.9439 2.73574 82.6978 2.81651 82.4591 2.96653C82.2279 3.1116 81.9949 3.02753 81.9371 2.78025C81.8867 2.56759 81.8625 2.34339 81.8793 2.12743C81.8849 2.05325 82.0396 1.95928 82.1478 1.92631C82.4498 1.83564 82.7574 1.74992 83.0707 1.7087C83.1937 1.69222 83.3373 1.79278 83.479 1.84224" fill="url(#paint12_linear_2241_11721)"/>
<path fill-rule="evenodd" clip-rule="evenodd" d="M83.7475 0.431097C84.1558 0.49539 85.0787 1.33284 85.1178 1.73178C84.9593 1.65925 84.8382 1.61144 84.7263 1.55045C84.4242 1.3823 84.1259 1.20755 83.8258 1.03775C83.7847 1.01632 83.7307 0.996541 83.6841 0.999838C83.2422 1.03446 82.7966 1.046 82.3622 1.11853C81.9613 1.18612 81.8252 1.11524 81.8662 0.762451C81.8867 0.587707 81.9222 0.412963 81.9427 0.239868C81.9669 0.0436935 82.1254 -0.00741076 82.3062 0.000831864C82.4628 0.00907449 82.6157 0.073367 82.7742 0.0832581C82.9439 0.0931493 83.1247 0.0931493 83.2851 0.0535847C83.548 -0.0140049 83.6803 0.0783126 83.7493 0.432746" fill="url(#paint13_linear_2241_11721)"/>
<path fill-rule="evenodd" clip-rule="evenodd" d="M82.8059 12.9368C82.7556 12.9055 82.7015 12.8791 82.6549 12.8445C82.5934 12.8 82.543 12.7406 82.4778 12.7027C82.4405 12.6813 82.3715 12.6681 82.3323 12.6829C82.2354 12.7209 82.1515 12.7044 82.0657 12.6681C81.9725 12.6302 81.8811 12.6121 81.7749 12.6483C81.6779 12.6813 81.6089 12.6252 81.6388 12.5379C81.6742 12.434 81.7264 12.3318 81.7861 12.2378C81.8047 12.2082 81.8755 12.1867 81.9222 12.1884C82.0452 12.195 82.1701 12.2148 82.2932 12.2345C82.3752 12.2477 82.42 12.2955 82.3976 12.373C82.3771 12.4455 82.4144 12.4818 82.4852 12.5148C82.6661 12.5989 82.8115 12.711 82.8395 12.9005C82.8283 12.9121 82.819 12.9236 82.8078 12.9352" fill="url(#paint14_linear_2241_11721)"/>
</mask>
<g mask="url(#mask0_2241_11721)">
<path fill-rule="evenodd" clip-rule="evenodd" d="M84.9109 38.9984C84.469 38.9984 84.2527 38.8319 84.2714 38.5565C84.2844 38.3785 84.3403 38.1856 84.4354 38.0274C84.6368 37.6944 84.6722 37.363 84.5566 37.0053C84.5119 36.8701 84.4895 36.7283 84.469 36.5899C84.4354 36.3657 84.5175 36.181 84.7039 36.0162C85.0526 35.7145 85.0115 35.3155 84.5976 35.0798C84.4242 34.9809 84.2173 34.9199 84.0159 34.8737C83.3746 34.7254 82.832 34.4319 82.3883 34.0099C82.2149 33.8484 82.1086 33.6291 81.9818 33.4313C81.8494 33.2252 81.732 33.0109 81.6033 32.8015C81.2491 32.2246 81.3703 31.8322 82.0303 31.5322C82.4125 31.3574 82.8152 31.2157 83.2105 31.064C83.6915 30.8777 84.0364 30.5826 84.2415 30.1491C84.3571 29.9067 84.5007 29.6677 84.6778 29.4583C84.9612 29.122 85.2782 29.1105 85.6641 29.3578C85.8319 29.4649 86.0221 29.5474 86.2141 29.6149C86.5441 29.7336 86.6131 29.9414 86.3558 30.159C86.257 30.2414 86.1284 30.3024 86.0034 30.3551C85.8487 30.4194 85.6678 30.4425 85.5299 30.5233C85.3938 30.6041 85.2949 30.7359 85.1793 30.8447C85.3024 30.9239 85.4124 31.0244 85.5466 31.0739C85.886 31.1975 86.0016 31.3377 85.9661 31.6591C85.9624 31.6937 85.9587 31.73 85.9456 31.763C85.7741 32.2246 85.9643 32.5559 86.3875 32.8428C86.5758 32.9697 86.7119 33.1725 86.8275 33.362C86.9338 33.5351 86.8518 33.7033 86.6765 33.8302C86.2812 34.1187 86.2663 34.2852 86.505 34.6924C86.6784 34.9858 86.8536 35.2925 86.9338 35.6123C87.0885 36.2338 86.9226 36.8388 86.5534 37.368C86.2141 37.8526 85.7965 38.2977 85.3788 38.7362C85.2427 38.8797 85.006 38.9473 84.9109 39" fill="#FEED01"/>
<path fill-rule="evenodd" clip-rule="evenodd" d="M87.0102 24.1287C86.9562 24.3215 86.9338 24.5276 86.8387 24.704C86.7157 24.9381 86.5012 24.9579 86.2719 24.7996C86.257 24.7897 86.2439 24.7732 86.2272 24.7666C86.0948 24.7056 85.9606 24.6463 85.8263 24.5869C85.8058 24.7304 85.7816 24.8721 85.7648 25.0156C85.7611 25.0485 85.7816 25.0831 85.7928 25.1178C85.9978 25.8036 85.6977 26.1811 84.881 26.2124C84.6181 26.2239 84.3459 26.1613 84.0886 26.0953C83.712 25.9981 83.6263 26.0245 83.5386 26.3492C83.4361 26.7333 83.1639 26.8636 82.6717 26.7861C82.2279 26.7168 81.7823 26.6509 81.3349 26.613C81.0571 26.5883 80.7737 26.6179 80.494 26.6245C80.1826 26.6328 80.0186 26.5157 80.0018 26.2421C79.9925 26.0855 80.0223 25.9255 80.0335 25.7689C80.0558 25.4887 80.0931 25.2084 80.0931 24.9298C80.0931 24.6018 80.1733 24.4353 80.5406 24.366C80.8464 24.31 81.1764 24.3149 81.4896 24.3463C81.8662 24.3809 82.2335 24.5128 82.6101 24.5227C82.8954 24.5292 83.2068 24.4518 83.4622 24.3364C83.7195 24.2226 83.8966 24.2061 84.0998 24.3924C84.18 24.465 84.3142 24.4946 84.4224 24.5424C84.4765 24.4353 84.538 24.3298 84.5771 24.2177C84.6014 24.1534 84.5827 24.0776 84.5865 24.0067C84.6051 23.6374 84.6629 23.578 85.0824 23.4956C85.4646 23.4214 85.8468 23.3489 86.229 23.278C86.656 23.1989 86.8219 23.2912 86.9096 23.6704C86.9431 23.8171 86.9506 23.9671 86.9711 24.1171C86.9841 24.1204 86.9972 24.1237 87.0102 24.127" fill="#FEED01"/>
<path fill-rule="evenodd" clip-rule="evenodd" d="M85.1924 27.9763C85.1514 28.2088 85.0843 28.4412 85.0749 28.6753C85.0675 28.8797 84.9724 28.9358 84.7636 28.9292C84.4951 28.9209 84.2266 28.9275 83.9525 28.9275C83.9488 28.9671 83.9376 28.9935 83.9414 29.0165C84.0346 29.4781 83.9246 29.6215 83.4063 29.7617C82.7257 29.9447 82.0471 30.1309 81.3721 30.3271C80.7364 30.5117 80.4642 30.3156 80.4977 29.7303C80.5108 29.4765 80.4138 29.2177 80.3635 28.9621C80.3262 28.766 80.2404 28.5665 80.2553 28.3736C80.274 28.1131 80.5387 27.9466 80.906 27.9219C81.6052 27.8758 82.3062 27.8345 83.0054 27.7983C83.093 27.7933 83.1881 27.8082 83.2702 27.8345C83.6412 27.9532 83.9395 27.8461 83.9637 27.5032C84.0122 26.8339 84.6648 26.7581 85.1402 26.5108C85.2166 26.4712 85.3993 26.5306 85.4982 26.5883C85.9139 26.8355 86.3204 27.0927 86.7231 27.3581C87.0214 27.5559 87.0587 27.7554 86.8387 28.0175C86.697 28.1857 86.5367 28.3538 86.3502 28.4808C85.9997 28.7181 85.6566 28.6192 85.4814 28.2648C85.4292 28.1577 85.3583 28.0587 85.2968 27.9565C85.2595 27.9631 85.2241 27.9697 85.1905 27.978" fill="#FEED01"/>
<path fill-rule="evenodd" clip-rule="evenodd" d="M81.5325 20.9552C82.4144 20.9668 83.1788 21.1119 83.8649 21.5108C83.8891 21.524 83.9152 21.5388 83.9432 21.5504C84.441 21.7828 84.7729 21.6179 84.7934 21.1283C84.8158 20.6404 84.9817 20.5629 85.4646 20.7937C85.5988 20.858 85.7666 20.9074 85.9158 20.9025C86.2533 20.8893 86.4677 21.0261 86.6262 21.2668C86.6709 21.3361 86.7101 21.4069 86.7418 21.4811C86.999 22.0565 86.9506 22.1273 86.2607 22.129C85.9289 22.129 85.7182 22.2477 85.5839 22.518C85.3285 23.0357 85.3136 23.0406 84.6834 22.9862C84.4131 22.9631 84.208 23.0505 84.042 23.2154C83.753 23.4973 83.4305 23.5302 83.0091 23.4511C82.3454 23.3275 81.6667 23.2467 80.9881 23.2071C80.123 23.1577 79.9608 22.9566 80.2852 22.2411C80.4343 21.9163 80.522 21.5701 80.6786 21.2487C80.7345 21.1349 80.8967 21.0278 81.0365 20.9882C81.2118 20.9388 81.4132 20.9602 81.5325 20.9552Z" fill="#FEED01"/>
<path fill-rule="evenodd" clip-rule="evenodd" d="M85.0675 18.7413C85.1066 18.6473 85.1607 18.5418 85.2017 18.4313C85.28 18.2055 85.418 18.0324 85.7051 17.9928C85.9811 17.9549 86.1228 18.1165 86.2645 18.283C86.4379 18.4874 86.6112 18.6902 86.7977 18.8847C87.0345 19.132 86.9543 19.6908 86.6318 19.8557C86.5796 19.8837 86.4379 19.8425 86.3894 19.793C86.2794 19.6809 86.2123 19.5359 86.1078 19.4188C86.0463 19.3496 85.927 19.254 85.8599 19.2688C85.7666 19.2886 85.6772 19.3891 85.6212 19.4732C85.5634 19.5622 85.5541 19.6743 85.5131 19.7732C85.4105 20.0271 85.2614 20.0799 84.9761 19.9711C84.5902 19.8211 84.5622 19.8244 84.3944 20.1607C84.2695 20.4112 84.0644 20.4788 83.7847 20.4063C83.3522 20.2942 82.929 20.1574 82.4908 20.065C82.2 20.004 81.8923 20.0156 81.594 19.9793C81.1801 19.9282 81.0552 19.6776 81.2435 19.3463C81.3982 19.0743 81.5399 18.7957 81.6611 18.5121C81.8028 18.1824 82.0583 18.0852 82.5132 18.1989C83.0129 18.3242 83.5163 18.4495 84.0215 18.5533C84.1931 18.5896 84.3851 18.5451 84.5604 18.5731C84.7076 18.5962 84.8456 18.6671 85.0656 18.7446" fill="#FEED01"/>
<path fill-rule="evenodd" clip-rule="evenodd" d="M86.0482 10.9075C86.0724 10.8712 86.1078 10.7954 86.1675 10.7377C86.2607 10.647 86.3689 10.5003 86.4714 10.5003C86.6001 10.5003 86.794 10.5959 86.8499 10.6965C86.9879 10.9437 87.137 11.135 87.4558 11.2372C87.5565 11.2702 87.6423 11.4911 87.6292 11.6163C87.5938 11.9559 87.6572 12.2642 87.8492 12.5577C87.8828 12.6104 87.9257 12.6813 87.9089 12.7291C87.8753 12.828 87.8026 12.9187 87.7467 13.0126C87.6665 12.9566 87.5882 12.9005 87.508 12.8445C87.5006 12.8395 87.4969 12.8297 87.4931 12.8214C87.3757 12.5906 87.3216 12.2889 87.1221 12.1472C86.9338 12.012 86.5889 12.0565 86.3185 12.0005C86.1078 11.9559 86.0817 12.0763 86.0389 12.195C85.9195 12.5395 85.8804 12.523 85.4888 12.5181C85.0041 12.5115 84.5175 12.5758 84.0308 12.6153C83.9134 12.6252 83.7978 12.6698 83.6803 12.6895C83.4827 12.7209 83.3764 12.6632 83.382 12.4686C83.3932 12.0483 83.4547 11.6246 83.2441 11.2174C83.1657 11.0657 83.2776 10.9487 83.4547 10.8943C83.492 10.8811 83.533 10.8646 83.5703 10.8679C84.2658 10.9289 84.9463 10.8762 85.6175 10.6915C85.7144 10.6635 85.8767 10.8168 86.0482 10.9075Z" fill="#FEED01"/>
<path fill-rule="evenodd" clip-rule="evenodd" d="M86.8741 17.739C86.8368 17.5922 86.8126 17.5016 86.7865 17.4109C86.7268 17.2197 86.6019 17.1224 86.3595 17.1043C86.1228 17.0878 85.8934 17.0153 85.6604 16.9691C85.3229 16.9032 85.2241 16.9658 85.1812 17.2642C85.1197 17.6928 84.909 17.7983 84.4354 17.6862C83.8575 17.5477 83.272 17.4274 82.6847 17.3202C82.2335 17.2378 82.0993 16.9988 82.3491 16.6592C82.5523 16.3839 82.7593 16.1185 82.7276 15.7591C82.7239 15.6997 82.8898 15.5679 82.9662 15.5745C83.1602 15.5893 83.3485 15.6668 83.5386 15.7162C83.8537 15.797 84.167 15.9108 84.4876 15.9454C84.6759 15.9668 84.9071 15.8959 85.0749 15.8052C85.2595 15.703 85.3844 15.6997 85.5131 15.8432C85.6827 16.0278 85.8673 16.0311 86.0967 15.9239C86.4789 15.7475 86.5367 15.769 86.7697 16.0937C86.8331 16.1828 86.8872 16.28 86.9636 16.3624C87.3365 16.7597 87.1109 17.1834 87.0345 17.6005C87.027 17.6401 86.9562 17.6697 86.8723 17.7406" fill="#FEED01"/>
<path fill-rule="evenodd" clip-rule="evenodd" d="M87.4372 14.8392C87.4074 15.0848 87.385 15.3305 87.3421 15.5728C87.3309 15.6305 87.2563 15.6816 87.2135 15.7344C87.1519 15.6948 87.055 15.6651 87.0363 15.6124C86.9636 15.4228 86.9077 15.2266 86.8629 15.0288C86.8257 14.8606 86.7772 14.7156 86.5329 14.7271C86.505 14.7271 86.464 14.7271 86.4453 14.7123C86.1134 14.4287 85.9307 14.615 85.7107 14.8557C85.6119 14.9645 85.3938 15.0156 85.2222 15.0403C85.0712 15.0634 84.9071 15.0041 84.7468 14.9958C84.3273 14.9678 83.9097 14.9414 83.492 14.9249C83.1266 14.9117 82.9551 14.7601 83.0837 14.4749C83.2459 14.1205 83.2329 13.7743 83.1881 13.4116C83.1546 13.133 83.2813 13.0588 83.5554 13.2022C84.0886 13.4825 84.6349 13.4726 85.2092 13.3341C85.3192 13.3061 85.4814 13.344 85.5821 13.4033C85.8394 13.5567 85.9046 13.5567 86.0836 13.3259C86.1116 13.2896 86.1265 13.2385 86.1656 13.2171C86.2607 13.166 86.3782 13.0802 86.464 13.0967C86.5516 13.1149 86.6579 13.2335 86.6728 13.3193C86.7026 13.4957 86.8499 13.5649 86.9543 13.6836C87.165 13.9193 87.2955 14.2144 87.426 14.4963C87.4708 14.5919 87.4204 14.7222 87.413 14.8376C87.4204 14.8376 87.4279 14.8376 87.4353 14.8392" fill="#FEED01"/>
<path fill-rule="evenodd" clip-rule="evenodd" d="M83.1937 9.62987C83.1937 9.53261 83.1937 9.43534 83.1937 9.33973C83.1937 9.08915 83.3466 8.95397 83.6169 8.95397C84.0663 8.95397 84.4709 8.78912 84.8941 8.71329C85.2726 8.64735 85.5075 8.59954 85.7014 8.27148C85.8524 8.01102 86.2328 8.04729 86.5162 8.23027C86.6224 8.29786 86.7641 8.33743 86.8984 8.35391C87.1184 8.37864 87.2657 8.46601 87.2974 8.65394C87.357 8.99189 87.5491 9.25895 87.8064 9.50128C87.8865 9.57712 87.9686 9.67108 87.9947 9.76999C88.017 9.85407 87.963 9.95463 87.9443 10.0502C87.8362 10.0255 87.6908 10.0338 87.6292 9.97441C87.4913 9.83758 87.3924 9.67108 87.2843 9.51118C87.1575 9.32654 87.0084 9.24906 86.738 9.29687C86.4938 9.33808 86.2234 9.31665 85.9792 9.27049C85.7238 9.22268 85.6287 9.29357 85.5895 9.50293C85.5094 9.94309 85.5 9.93155 85.006 10.0321C84.5976 10.1162 84.1968 10.2365 83.7922 10.3305C83.4063 10.4195 83.2496 10.3206 83.2105 9.97441C83.1993 9.86066 83.2086 9.74527 83.2086 9.63152H83.1956L83.1937 9.62987Z" fill="#FEED01"/>
<path fill-rule="evenodd" clip-rule="evenodd" d="M84.9538 6.9741C85.0395 6.84221 85.0899 6.78616 85.116 6.72022C85.2782 6.30644 85.7629 6.17126 86.0855 6.49767C86.3241 6.74 86.5982 6.87518 86.917 6.98563C87.0419 7.03015 87.1706 7.10268 87.2619 7.1917C87.3328 7.26094 87.3477 7.37304 87.3887 7.467C87.2769 7.48019 87.1538 7.5247 87.0569 7.49833C86.8853 7.45382 86.7287 7.36809 86.5721 7.29226C86.0724 7.04828 86.0202 7.06312 85.8524 7.53954C85.7928 7.70769 85.6716 7.77198 85.4683 7.76868C85.3397 7.76868 85.2092 7.81979 85.0824 7.85111C84.9388 7.88738 84.799 7.93519 84.6554 7.9698C84.318 8.05223 83.9768 8.12147 83.6449 8.21544C83.3391 8.30116 83.2534 8.26819 83.1807 7.99288C83.1322 7.8132 83.0874 7.63186 83.0185 7.45876C82.9364 7.25105 83.0073 7.09938 83.2254 7.03015C83.4491 6.95926 83.6897 6.93123 83.9227 6.88013C84.0961 6.84221 84.277 6.81089 84.4392 6.7499C84.6685 6.66088 84.8736 6.5735 84.9538 6.97574" fill="#FEED01"/>
<path fill-rule="evenodd" clip-rule="evenodd" d="M82.515 5.54647C82.5878 5.47723 82.6698 5.33381 82.7947 5.29425C83.1229 5.19369 83.4696 5.14588 83.8052 5.0651C83.9507 5.03048 84.1147 4.99586 84.2285 4.91674C84.5566 4.69089 84.7785 4.76177 84.9071 5.11456C84.9538 5.24479 85.0917 5.38986 85.2334 5.44921C85.5746 5.59428 85.9456 5.68165 86.2924 5.81848C86.3912 5.85639 86.4416 5.98498 86.5124 6.074C86.3912 6.09708 86.2514 6.16302 86.147 6.13664C85.7331 6.03114 85.3285 5.89926 84.9239 5.77232C84.7132 5.70638 84.5436 5.71462 84.3907 5.88607C84.3161 5.97014 84.1819 6.0196 84.0681 6.06576C83.7791 6.18115 83.4808 6.27677 83.1993 6.40041C83.0203 6.47789 82.873 6.468 82.7984 6.30974C82.694 6.08389 82.6251 5.8465 82.5169 5.54647" fill="#FEED01"/>
<path fill-rule="evenodd" clip-rule="evenodd" d="M84.0607 3.43141C84.1017 3.30283 84.1092 3.23029 84.1464 3.17259C84.1968 3.09511 84.262 2.97477 84.331 2.97147C84.428 2.96488 84.5473 3.03412 84.6293 3.09511C84.6853 3.13468 84.7188 3.21711 84.7282 3.28305C84.7841 3.68858 85.0843 3.88805 85.4851 4.01994C85.6865 4.08588 85.9009 4.16666 85.8692 4.49306C85.6548 4.42053 85.4683 4.36613 85.2893 4.29524C85.0619 4.20457 84.8438 4.09577 84.6182 4.0051C84.4392 3.93256 84.3031 3.99191 84.1651 4.1139C84.0532 4.21117 83.9003 4.2903 83.7493 4.33975C83.423 4.44855 83.0818 4.52603 82.7556 4.63319C82.3976 4.74859 82.2876 4.68924 82.2578 4.34635C82.2484 4.21446 82.2186 4.08423 82.1962 3.954C82.1645 3.76606 82.2111 3.64572 82.4722 3.65232C82.8395 3.66056 83.162 3.5633 83.4007 3.29953C83.6524 3.02258 83.8425 3.2171 84.0607 3.43141Z" fill="#FEED01"/>
<path fill-rule="evenodd" clip-rule="evenodd" d="M83.4827 1.84388C83.6841 1.51253 83.7978 1.51912 84.1054 1.84718C84.277 2.02852 84.5212 2.16205 84.7412 2.30712C84.8848 2.40109 85.0563 2.46208 85.1943 2.56099C85.2446 2.59726 85.239 2.69617 85.2595 2.76706C85.1775 2.77695 85.0824 2.81487 85.0134 2.79179C84.8643 2.74233 84.7282 2.6632 84.5883 2.59396C84.2639 2.43735 83.9507 2.40603 83.6263 2.60715C83.5163 2.67474 83.369 2.73079 83.2385 2.73244C82.9439 2.73574 82.6978 2.81651 82.4591 2.96653C82.2279 3.1116 81.9949 3.02753 81.9371 2.78025C81.8867 2.56759 81.8625 2.34339 81.8793 2.12743C81.8849 2.05325 82.0396 1.95928 82.1478 1.92631C82.4498 1.83564 82.7574 1.74992 83.0707 1.7087C83.1937 1.69222 83.3373 1.79278 83.479 1.84224" fill="#FEED01"/>
<path fill-rule="evenodd" clip-rule="evenodd" d="M83.7475 0.431097C84.1558 0.49539 85.0787 1.33284 85.1178 1.73178C84.9593 1.65925 84.8382 1.61144 84.7263 1.55045C84.4242 1.3823 84.1259 1.20755 83.8258 1.03775C83.7847 1.01632 83.7307 0.996541 83.6841 0.999838C83.2422 1.03446 82.7966 1.046 82.3622 1.11853C81.9613 1.18612 81.8252 1.11524 81.8662 0.762451C81.8867 0.587707 81.9222 0.412963 81.9427 0.239868C81.9669 0.0436935 82.1254 -0.00741076 82.3062 0.000831864C82.4628 0.00907449 82.6157 0.073367 82.7742 0.0832581C82.9439 0.0931493 83.1247 0.0931493 83.2851 0.0535847C83.548 -0.0140049 83.6803 0.0783126 83.7493 0.432746" fill="#FEED01"/>
<path fill-rule="evenodd" clip-rule="evenodd" d="M82.8059 12.9368C82.7556 12.9055 82.7015 12.8791 82.6549 12.8445C82.5934 12.8 82.543 12.7406 82.4778 12.7027C82.4405 12.6813 82.3715 12.6681 82.3323 12.6829C82.2354 12.7209 82.1515 12.7044 82.0657 12.6681C81.9725 12.6302 81.8811 12.6121 81.7749 12.6483C81.6779 12.6813 81.6089 12.6252 81.6388 12.5379C81.6742 12.434 81.7264 12.3318 81.7861 12.2378C81.8047 12.2082 81.8755 12.1867 81.9222 12.1884C82.0452 12.195 82.1701 12.2148 82.2932 12.2345C82.3752 12.2477 82.42 12.2955 82.3976 12.373C82.3771 12.4455 82.4144 12.4818 82.4852 12.5148C82.6661 12.5989 82.8115 12.711 82.8395 12.9005C82.8283 12.9121 82.819 12.9236 82.8078 12.9352" fill="#FEED01"/>
</g>
<path d="M92.72 25.356C93.0933 25.2173 93.5253 25.1053 94.016 25.02C94.5067 24.9347 95.04 24.892 95.616 24.892C96.0533 24.892 96.48 24.9347 96.896 25.02C97.312 25.0947 97.68 25.228 98 25.42C98.3307 25.6013 98.592 25.8467 98.784 26.156C98.9867 26.4547 99.088 26.8333 99.088 27.292C99.088 27.708 98.992 28.0653 98.8 28.364C98.608 28.652 98.336 28.892 97.984 29.084C98.4533 29.2867 98.8 29.5533 99.024 29.884C99.248 30.2147 99.36 30.636 99.36 31.148C99.36 31.628 99.2587 32.0333 99.056 32.364C98.8533 32.684 98.5813 32.9453 98.24 33.148C97.8987 33.3507 97.5093 33.4947 97.072 33.58C96.6347 33.676 96.1813 33.724 95.712 33.724C95.4347 33.724 95.1467 33.708 94.848 33.676C94.5493 33.6547 94.256 33.6173 93.968 33.564C93.6907 33.5213 93.424 33.4627 93.168 33.388C92.912 33.3133 92.6827 33.2333 92.48 33.148L92.912 31.292C93.136 31.3773 93.4773 31.4787 93.936 31.596C94.4053 31.7133 94.9333 31.772 95.52 31.772C96.48 31.772 96.96 31.5053 96.96 30.972C96.96 30.7907 96.9227 30.6467 96.848 30.54C96.7733 30.4227 96.672 30.332 96.544 30.268C96.4267 30.204 96.288 30.1613 96.128 30.14C95.968 30.1187 95.808 30.108 95.648 30.108H93.776V28.412H95.664C96.048 28.412 96.3147 28.3373 96.464 28.188C96.624 28.028 96.704 27.8467 96.704 27.644C96.704 27.4413 96.6133 27.26 96.432 27.1C96.2613 26.9293 95.9413 26.844 95.472 26.844C95.0027 26.844 94.56 26.8867 94.144 26.972C93.728 27.0573 93.392 27.1373 93.136 27.212L92.72 25.356ZM100.242 31.548H101.282C101.581 31.1853 101.81 30.7373 101.97 30.204C102.141 29.66 102.258 29.0893 102.322 28.492C102.397 27.884 102.439 27.2813 102.45 26.684C102.461 26.0867 102.466 25.5533 102.466 25.084H109.026V31.548H110.45V35.9H108.418V33.5H102.274V35.9H100.242V31.548ZM106.642 31.548V27.036H104.69C104.669 27.4093 104.642 27.7987 104.61 28.204C104.589 28.5987 104.541 28.9933 104.466 29.388C104.402 29.772 104.311 30.1507 104.194 30.524C104.077 30.8973 103.922 31.2387 103.73 31.548H106.642ZM119.758 29.276C119.758 29.9373 119.662 30.5453 119.47 31.1C119.278 31.644 119 32.1133 118.638 32.508C118.275 32.892 117.838 33.1907 117.326 33.404C116.824 33.6173 116.259 33.724 115.63 33.724C115.011 33.724 114.446 33.6173 113.934 33.404C113.432 33.1907 113 32.892 112.638 32.508C112.275 32.1133 111.992 31.644 111.79 31.1C111.587 30.5453 111.486 29.9373 111.486 29.276C111.486 28.6147 111.587 28.012 111.79 27.468C112.003 26.924 112.291 26.46 112.654 26.076C113.027 25.692 113.464 25.3933 113.966 25.18C114.478 24.9667 115.032 24.86 115.63 24.86C116.238 24.86 116.792 24.9667 117.294 25.18C117.806 25.3933 118.243 25.692 118.606 26.076C118.968 26.46 119.251 26.924 119.454 27.468C119.656 28.012 119.758 28.6147 119.758 29.276ZM117.326 29.276C117.326 28.54 117.176 27.964 116.878 27.548C116.59 27.1213 116.174 26.908 115.63 26.908C115.086 26.908 114.664 27.1213 114.366 27.548C114.067 27.964 113.918 28.54 113.918 29.276C113.918 30.012 114.067 30.5987 114.366 31.036C114.664 31.4627 115.086 31.676 115.63 31.676C116.174 31.676 116.59 31.4627 116.878 31.036C117.176 30.5987 117.326 30.012 117.326 29.276ZM126.996 29.356C126.996 28.62 126.831 28.0333 126.5 27.596C126.17 27.148 125.679 26.924 125.028 26.924C124.815 26.924 124.618 26.9347 124.436 26.956C124.255 26.9667 124.106 26.9827 123.988 27.004V31.308C124.138 31.404 124.33 31.484 124.564 31.548C124.81 31.612 125.055 31.644 125.3 31.644C126.431 31.644 126.996 30.8813 126.996 29.356ZM129.428 29.292C129.428 29.9427 129.348 30.5347 129.188 31.068C129.028 31.6013 128.794 32.06 128.484 32.444C128.175 32.828 127.791 33.1267 127.332 33.34C126.874 33.5533 126.346 33.66 125.748 33.66C125.418 33.66 125.108 33.628 124.82 33.564C124.532 33.5 124.255 33.4093 123.988 33.292V36.46H121.604V25.372C121.818 25.308 122.063 25.2493 122.34 25.196C122.618 25.132 122.906 25.0787 123.204 25.036C123.514 24.9933 123.823 24.9613 124.132 24.94C124.452 24.908 124.756 24.892 125.044 24.892C125.738 24.892 126.356 24.9987 126.9 25.212C127.444 25.4147 127.903 25.708 128.276 26.092C128.65 26.4653 128.932 26.924 129.124 27.468C129.327 28.012 129.428 28.62 129.428 29.292ZM139.133 29.276C139.133 29.9373 139.037 30.5453 138.845 31.1C138.653 31.644 138.375 32.1133 138.013 32.508C137.65 32.892 137.213 33.1907 136.701 33.404C136.199 33.6173 135.634 33.724 135.005 33.724C134.386 33.724 133.821 33.6173 133.309 33.404C132.807 33.1907 132.375 32.892 132.013 32.508C131.65 32.1133 131.367 31.644 131.165 31.1C130.962 30.5453 130.861 29.9373 130.861 29.276C130.861 28.6147 130.962 28.012 131.165 27.468C131.378 26.924 131.666 26.46 132.029 26.076C132.402 25.692 132.839 25.3933 133.341 25.18C133.853 24.9667 134.407 24.86 135.005 24.86C135.613 24.86 136.167 24.9667 136.669 25.18C137.181 25.3933 137.618 25.692 137.981 26.076C138.343 26.46 138.626 26.924 138.829 27.468C139.031 28.012 139.133 28.6147 139.133 29.276ZM136.701 29.276C136.701 28.54 136.551 27.964 136.253 27.548C135.965 27.1213 135.549 26.908 135.005 26.908C134.461 26.908 134.039 27.1213 133.741 27.548C133.442 27.964 133.293 28.54 133.293 29.276C133.293 30.012 133.442 30.5987 133.741 31.036C134.039 31.4627 134.461 31.676 135.005 31.676C135.549 31.676 135.965 31.4627 136.253 31.036C136.551 30.5987 136.701 30.012 136.701 29.276ZM143.363 31.74C143.513 31.7613 143.71 31.7827 143.955 31.804C144.211 31.8147 144.446 31.82 144.659 31.82C145.193 31.82 145.609 31.756 145.907 31.628C146.206 31.4893 146.355 31.244 146.355 30.892C146.355 30.5507 146.217 30.316 145.939 30.188C145.673 30.0493 145.278 29.98 144.755 29.98H143.363V31.74ZM144.707 28.38C145.102 28.38 145.422 28.332 145.667 28.236C145.913 28.1293 146.035 27.9053 146.035 27.564C146.035 27.244 145.897 27.0253 145.619 26.908C145.342 26.7907 144.979 26.732 144.531 26.732C144.382 26.732 144.185 26.7427 143.939 26.764C143.705 26.7747 143.513 26.7907 143.363 26.812V28.38H144.707ZM144.627 33.66C144.329 33.66 144.009 33.6493 143.667 33.628C143.326 33.6067 142.99 33.5747 142.659 33.532C142.329 33.5 142.014 33.4627 141.715 33.42C141.427 33.3667 141.182 33.3187 140.979 33.276V25.212C141.182 25.1693 141.427 25.132 141.715 25.1C142.014 25.0573 142.329 25.02 142.659 24.988C142.99 24.956 143.326 24.9347 143.667 24.924C144.009 24.9027 144.329 24.892 144.627 24.892C145.321 24.892 145.902 24.9613 146.371 25.1C146.851 25.2387 147.235 25.42 147.523 25.644C147.822 25.868 148.035 26.1187 148.163 26.396C148.291 26.6733 148.355 26.9507 148.355 27.228C148.355 27.6013 148.265 27.9427 148.083 28.252C147.902 28.5613 147.673 28.7853 147.395 28.924C147.545 28.988 147.694 29.0787 147.843 29.196C148.003 29.3133 148.147 29.4573 148.275 29.628C148.403 29.788 148.505 29.9853 148.579 30.22C148.665 30.444 148.707 30.7053 148.707 31.004C148.707 31.3453 148.638 31.676 148.499 31.996C148.371 32.316 148.147 32.5987 147.827 32.844C147.507 33.0893 147.086 33.2867 146.563 33.436C146.041 33.5853 145.395 33.66 144.627 33.66ZM152.403 21.228C152.424 21.3773 152.44 21.532 152.451 21.692C152.461 21.852 152.467 21.9693 152.467 22.044C152.467 22.7587 152.339 23.4413 152.083 24.092C151.827 24.732 151.512 25.276 151.139 25.724L149.459 25.34C149.661 24.8813 149.821 24.364 149.939 23.788C150.067 23.212 150.131 22.6627 150.131 22.14C150.131 22.1187 150.131 22.076 150.131 22.012C150.131 21.9373 150.125 21.8573 150.115 21.772C150.115 21.676 150.109 21.58 150.099 21.484C150.099 21.388 150.093 21.3027 150.083 21.228H152.403ZM159.178 24.444C158.858 24.444 158.549 24.4707 158.25 24.524C157.962 24.5667 157.706 24.6467 157.482 24.764C157.258 24.8707 157.077 25.0253 156.938 25.228C156.8 25.42 156.73 25.6653 156.73 25.964C156.73 26.5293 156.928 26.9187 157.322 27.132C157.728 27.3453 158.325 27.452 159.114 27.452H160.154V24.46C160.026 24.4493 159.888 24.444 159.738 24.444C159.589 24.444 159.402 24.444 159.178 24.444ZM159.29 22.3C159.738 22.3 160.261 22.3267 160.858 22.38C161.466 22.4333 162.064 22.524 162.65 22.652V33.5H160.154V29.516H159.386C159.248 29.516 159.114 29.516 158.986 29.516C158.858 29.516 158.704 29.5053 158.522 29.484C158.17 29.964 157.781 30.5667 157.354 31.292C156.938 32.0067 156.549 32.7427 156.186 33.5H153.546C153.738 33.0627 153.941 32.6307 154.154 32.204C154.378 31.7773 154.602 31.372 154.826 30.988C155.05 30.604 155.269 30.252 155.482 29.932C155.696 29.6013 155.893 29.3133 156.074 29.068C155.84 28.9613 155.605 28.8227 155.37 28.652C155.146 28.4707 154.944 28.2573 154.762 28.012C154.581 27.7667 154.432 27.4787 154.314 27.148C154.208 26.8067 154.154 26.4173 154.154 25.98C154.154 25.372 154.272 24.8387 154.506 24.38C154.752 23.9213 155.093 23.5373 155.53 23.228C155.978 22.9187 156.517 22.6893 157.146 22.54C157.786 22.38 158.501 22.3 159.29 22.3Z" fill="#FEED01"/>
<defs>
<linearGradient id="paint0_linear_2241_11721" x1="84.1212" y1="-6.95565e-10" x2="83.976" y2="38.9999" gradientUnits="userSpaceOnUse">
<stop stop-opacity="0"/>
<stop offset="1" stop-color="white"/>
</linearGradient>
<linearGradient id="paint1_linear_2241_11721" x1="84.1212" y1="-6.95565e-10" x2="83.976" y2="38.9999" gradientUnits="userSpaceOnUse">
<stop stop-opacity="0"/>
<stop offset="1" stop-color="white"/>
</linearGradient>
<linearGradient id="paint2_linear_2241_11721" x1="84.1212" y1="-6.95565e-10" x2="83.976" y2="38.9999" gradientUnits="userSpaceOnUse">
<stop stop-opacity="0"/>
<stop offset="1" stop-color="white"/>
</linearGradient>
<linearGradient id="paint3_linear_2241_11721" x1="84.1212" y1="-6.95565e-10" x2="83.976" y2="38.9999" gradientUnits="userSpaceOnUse">
<stop stop-opacity="0"/>
<stop offset="1" stop-color="white"/>
</linearGradient>
<linearGradient id="paint4_linear_2241_11721" x1="84.1212" y1="-6.95565e-10" x2="83.976" y2="38.9999" gradientUnits="userSpaceOnUse">
<stop stop-opacity="0"/>
<stop offset="1" stop-color="white"/>
</linearGradient>
<linearGradient id="paint5_linear_2241_11721" x1="84.1212" y1="-6.95565e-10" x2="83.976" y2="38.9999" gradientUnits="userSpaceOnUse">
<stop stop-opacity="0"/>
<stop offset="1" stop-color="white"/>
</linearGradient>
<linearGradient id="paint6_linear_2241_11721" x1="84.1212" y1="-6.95565e-10" x2="83.976" y2="38.9999" gradientUnits="userSpaceOnUse">
<stop stop-opacity="0"/>
<stop offset="1" stop-color="white"/>
</linearGradient>
<linearGradient id="paint7_linear_2241_11721" x1="84.1212" y1="-6.95565e-10" x2="83.976" y2="38.9999" gradientUnits="userSpaceOnUse">
<stop stop-opacity="0"/>
<stop offset="1" stop-color="white"/>
</linearGradient>
<linearGradient id="paint8_linear_2241_11721" x1="84.1212" y1="-6.95565e-10" x2="83.976" y2="38.9999" gradientUnits="userSpaceOnUse">
<stop stop-opacity="0"/>
<stop offset="1" stop-color="white"/>
</linearGradient>
<linearGradient id="paint9_linear_2241_11721" x1="84.1212" y1="-6.95565e-10" x2="83.976" y2="38.9999" gradientUnits="userSpaceOnUse">
<stop stop-opacity="0"/>
<stop offset="1" stop-color="white"/>
</linearGradient>
<linearGradient id="paint10_linear_2241_11721" x1="84.1212" y1="-6.95565e-10" x2="83.976" y2="38.9999" gradientUnits="userSpaceOnUse">
<stop stop-opacity="0"/>
<stop offset="1" stop-color="white"/>
</linearGradient>
<linearGradient id="paint11_linear_2241_11721" x1="84.1212" y1="-6.95565e-10" x2="83.976" y2="38.9999" gradientUnits="userSpaceOnUse">
<stop stop-opacity="0"/>
<stop offset="1" stop-color="white"/>
</linearGradient>
<linearGradient id="paint12_linear_2241_11721" x1="84.1212" y1="-6.95565e-10" x2="83.976" y2="38.9999" gradientUnits="userSpaceOnUse">
<stop stop-opacity="0"/>
<stop offset="1" stop-color="white"/>
</linearGradient>
<linearGradient id="paint13_linear_2241_11721" x1="84.1212" y1="-6.95565e-10" x2="83.976" y2="38.9999" gradientUnits="userSpaceOnUse">
<stop stop-opacity="0"/>
<stop offset="1" stop-color="white"/>
</linearGradient>
<linearGradient id="paint14_linear_2241_11721" x1="84.1212" y1="-6.95565e-10" x2="83.976" y2="38.9999" gradientUnits="userSpaceOnUse">
<stop stop-opacity="0"/>
<stop offset="1" stop-color="white"/>
</linearGradient>
</defs>
</svg>
