<svg width="668" height="180" viewBox="0 0 668 180" fill="none" xmlns="http://www.w3.org/2000/svg">
<path d="M34.816 154C34.3467 152.464 33.8133 150.885 33.216 149.264C32.6613 147.643 32.1067 146.021 31.552 144.4H14.272C13.7173 146.021 13.1413 147.643 12.544 149.264C11.9893 150.885 11.4773 152.464 11.008 154H0.64C2.304 149.221 3.88267 144.805 5.376 140.752C6.86933 136.699 8.32 132.88 9.728 129.296C11.1787 125.712 12.5867 122.32 13.952 119.12C15.36 115.877 16.8107 112.72 18.304 109.648H27.84C29.2907 112.72 30.72 115.877 32.128 119.12C33.536 122.32 34.944 125.712 36.352 129.296C37.8027 132.88 39.2747 136.699 40.768 140.752C42.2613 144.805 43.84 149.221 45.504 154H34.816ZM22.848 119.696C22.6347 120.336 22.3147 121.211 21.888 122.32C21.4613 123.429 20.9707 124.709 20.416 126.16C19.8613 127.611 19.2427 129.211 18.56 130.96C17.92 132.709 17.2587 134.544 16.576 136.464H29.184C28.5013 134.544 27.84 132.709 27.2 130.96C26.56 129.211 25.9413 127.611 25.344 126.16C24.7893 124.709 24.2987 123.429 23.872 122.32C23.4453 121.211 23.104 120.336 22.848 119.696ZM60.141 132.112C61.0797 131.216 62.061 130.235 63.085 129.168C64.1517 128.101 65.1757 127.056 66.157 126.032C67.1383 124.965 68.077 123.941 68.973 122.96C69.869 121.979 70.6583 121.104 71.341 120.336H82.925C82.0717 121.232 81.005 122.341 79.725 123.664C78.4877 124.987 77.165 126.373 75.757 127.824C74.349 129.232 72.9197 130.64 71.469 132.048C70.061 133.456 68.717 134.715 67.437 135.824C68.717 136.805 70.0823 138.021 71.533 139.472C72.9837 140.923 74.3917 142.48 75.757 144.144C77.165 145.808 78.4877 147.493 79.725 149.2C81.005 150.907 82.093 152.507 82.989 154H72.109C71.341 152.848 70.4663 151.653 69.485 150.416C68.5037 149.136 67.4797 147.899 66.413 146.704C65.3463 145.467 64.2583 144.315 63.149 143.248C62.0823 142.181 61.0797 141.264 60.141 140.496V154H50.605V120.336H60.141V132.112ZM100.344 147.344C101.283 147.344 102.179 147.323 103.032 147.28C103.885 147.237 104.568 147.173 105.08 147.088V139.856C104.696 139.771 104.12 139.685 103.352 139.6C102.584 139.515 101.88 139.472 101.24 139.472C100.344 139.472 99.4907 139.536 98.68 139.664C97.912 139.749 97.2293 139.941 96.632 140.24C96.0347 140.539 95.5653 140.944 95.224 141.456C94.8827 141.968 94.712 142.608 94.712 143.376C94.712 144.869 95.2027 145.915 96.184 146.512C97.208 147.067 98.5947 147.344 100.344 147.344ZM99.576 119.44C102.392 119.44 104.739 119.76 106.616 120.4C108.493 121.04 109.987 121.957 111.096 123.152C112.248 124.347 113.059 125.797 113.528 127.504C113.997 129.211 114.232 131.109 114.232 133.2V153.04C112.867 153.339 110.968 153.68 108.536 154.064C106.104 154.491 103.16 154.704 99.704 154.704C97.528 154.704 95.544 154.512 93.752 154.128C92.0027 153.744 90.488 153.125 89.208 152.272C87.928 151.376 86.9467 150.224 86.264 148.816C85.5813 147.408 85.24 145.68 85.24 143.632C85.24 141.669 85.624 140.005 86.392 138.64C87.2027 137.275 88.2693 136.187 89.592 135.376C90.9147 134.565 92.4293 133.989 94.136 133.648C95.8427 133.264 97.6133 133.072 99.448 133.072C100.685 133.072 101.773 133.136 102.712 133.264C103.693 133.349 104.483 133.477 105.08 133.648V132.752C105.08 131.131 104.589 129.829 103.608 128.848C102.627 127.867 100.92 127.376 98.488 127.376C96.8667 127.376 95.2667 127.504 93.688 127.76C92.1093 127.973 90.744 128.293 89.592 128.72L88.376 121.04C88.9307 120.869 89.6133 120.699 90.424 120.528C91.2773 120.315 92.1947 120.144 93.176 120.016C94.1573 119.845 95.1813 119.717 96.248 119.632C97.3573 119.504 98.4667 119.44 99.576 119.44ZM119.655 146.192H123.815C125.01 144.741 125.927 142.949 126.567 140.816C127.25 138.64 127.719 136.357 127.975 133.968C128.274 131.536 128.444 129.125 128.487 126.736C128.53 124.347 128.551 122.213 128.551 120.336H154.791V146.192H160.487V163.6H152.359V154H127.783V163.6H119.655V146.192ZM145.255 146.192V128.144H137.447C137.362 129.637 137.255 131.195 137.127 132.816C137.042 134.395 136.85 135.973 136.551 137.552C136.295 139.088 135.932 140.603 135.463 142.096C134.994 143.589 134.375 144.955 133.607 146.192H145.255ZM164.63 137.424C164.63 134.437 165.078 131.835 165.974 129.616C166.913 127.355 168.129 125.477 169.622 123.984C171.115 122.491 172.822 121.36 174.742 120.592C176.705 119.824 178.71 119.44 180.758 119.44C185.537 119.44 189.313 120.912 192.086 123.856C194.859 126.757 196.246 131.045 196.246 136.72C196.246 137.275 196.225 137.893 196.182 138.576C196.139 139.216 196.097 139.792 196.054 140.304H174.422C174.635 142.267 175.553 143.824 177.174 144.976C178.795 146.128 180.971 146.704 183.702 146.704C185.451 146.704 187.158 146.555 188.822 146.256C190.529 145.915 191.915 145.509 192.982 145.04L194.262 152.784C193.75 153.04 193.067 153.296 192.214 153.552C191.361 153.808 190.401 154.021 189.334 154.192C188.31 154.405 187.201 154.576 186.006 154.704C184.811 154.832 183.617 154.896 182.422 154.896C179.393 154.896 176.747 154.448 174.486 153.552C172.267 152.656 170.411 151.44 168.918 149.904C167.467 148.325 166.379 146.469 165.654 144.336C164.971 142.203 164.63 139.899 164.63 137.424ZM187.03 133.776C186.987 132.965 186.838 132.176 186.582 131.408C186.369 130.64 186.006 129.957 185.494 129.36C185.025 128.763 184.406 128.272 183.638 127.888C182.913 127.504 181.995 127.312 180.886 127.312C179.819 127.312 178.902 127.504 178.134 127.888C177.366 128.229 176.726 128.699 176.214 129.296C175.702 129.893 175.297 130.597 174.998 131.408C174.742 132.176 174.55 132.965 174.422 133.776H187.03ZM213.077 134.608C212.992 136.101 212.906 137.723 212.821 139.472C212.736 141.221 212.65 142.992 212.565 144.784C212.522 146.533 212.458 148.219 212.373 149.84C212.33 151.419 212.288 152.805 212.245 154H202.965C203.05 151.653 203.178 149.008 203.349 146.064C203.562 143.12 203.776 140.133 203.989 137.104C204.245 134.032 204.501 131.045 204.757 128.144C205.056 125.243 205.333 122.64 205.589 120.336H213.525C215.36 123.323 217.045 126.416 218.581 129.616C220.117 132.816 221.738 136.336 223.445 140.176C225.237 136.08 226.986 132.304 228.693 128.848C230.4 125.349 231.936 122.512 233.301 120.336H241.365C241.664 122.64 241.941 125.243 242.197 128.144C242.496 131.045 242.752 134.032 242.965 137.104C243.221 140.133 243.434 143.12 243.605 146.064C243.776 149.008 243.904 151.653 243.989 154H234.517C234.432 150.672 234.304 147.365 234.133 144.08C234.005 140.795 233.877 137.616 233.749 134.544L226.709 150.032H220.117L213.077 134.608ZM261.829 154H252.293V120.336H261.829V154ZM262.725 110.608C262.725 112.357 262.149 113.744 260.997 114.768C259.887 115.749 258.565 116.24 257.029 116.24C255.493 116.24 254.149 115.749 252.997 114.768C251.887 113.744 251.333 112.357 251.333 110.608C251.333 108.859 251.887 107.493 252.997 106.512C254.149 105.488 255.493 104.976 257.029 104.976C258.565 104.976 259.887 105.488 260.997 106.512C262.149 107.493 262.725 108.859 262.725 110.608ZM284.745 142.032C283.379 144.037 282.163 146.064 281.097 148.112C280.03 150.117 279.006 152.08 278.025 154H268.233C269.47 151.227 270.729 148.688 272.009 146.384C273.289 144.08 274.526 142.096 275.72 140.432C273.929 139.493 272.499 138.299 271.433 136.848C270.366 135.355 269.833 133.499 269.833 131.28C269.833 127.525 271.177 124.645 273.865 122.64C276.595 120.635 280.35 119.632 285.128 119.632C286.195 119.632 287.369 119.675 288.649 119.76C289.971 119.845 291.273 119.973 292.553 120.144C293.833 120.315 295.049 120.507 296.201 120.72C297.395 120.891 298.398 121.083 299.208 121.296V154H289.673V142.032H284.745ZM289.673 127.184C289.246 127.141 288.585 127.099 287.689 127.056C286.793 126.971 286.025 126.928 285.385 126.928C283.038 126.928 281.438 127.333 280.585 128.144C279.731 128.912 279.305 129.915 279.305 131.152C279.305 131.92 279.475 132.581 279.817 133.136C280.158 133.648 280.606 134.075 281.161 134.416C281.715 134.715 282.334 134.928 283.017 135.056C283.699 135.184 284.382 135.248 285.065 135.248H289.673V127.184Z" fill="#FEED01"/>
<mask id="mask0_1091_4344" style="mask-type:alpha" maskUnits="userSpaceOnUse" x="322" y="0" width="40" height="180">
<path fill-rule="evenodd" clip-rule="evenodd" d="M346.554 179.992C344.345 179.992 343.264 179.224 343.357 177.953C343.422 177.132 343.702 176.241 344.177 175.511C345.184 173.974 345.361 172.445 344.783 170.794C344.559 170.17 344.448 169.515 344.345 168.876C344.177 167.841 344.587 166.989 345.52 166.228C347.263 164.836 347.058 162.995 344.988 161.907C344.121 161.45 343.086 161.169 342.08 160.956C338.873 160.271 336.16 158.917 333.941 156.969C333.074 156.223 332.543 155.211 331.909 154.298C331.247 153.347 330.66 152.358 330.017 151.392C328.245 148.729 328.851 146.918 332.151 145.533C334.063 144.727 336.076 144.072 338.052 143.372C340.458 142.513 342.182 141.151 343.208 139.15C343.786 138.031 344.503 136.928 345.389 135.962C346.806 134.409 348.391 134.356 350.321 135.497C351.16 135.992 352.11 136.372 353.071 136.684C354.721 137.232 355.066 138.191 353.779 139.195C353.285 139.576 352.642 139.857 352.017 140.101C351.243 140.397 350.339 140.504 349.649 140.877C348.969 141.25 348.475 141.858 347.897 142.36C348.512 142.726 349.062 143.19 349.733 143.418C351.43 143.989 352.008 144.635 351.831 146.119C351.812 146.279 351.793 146.446 351.728 146.598C350.871 148.729 351.821 150.258 353.938 151.582C354.879 152.168 355.56 153.104 356.138 153.979C356.669 154.778 356.259 155.554 355.383 156.139C353.406 157.471 353.332 158.239 354.525 160.119C355.392 161.473 356.268 162.888 356.669 164.364C357.443 167.233 356.613 170.025 354.767 172.467C353.071 174.704 350.982 176.759 348.894 178.783C348.214 179.445 347.03 179.757 346.554 180" fill="url(#paint0_linear_1091_4344)"/>
<path fill-rule="evenodd" clip-rule="evenodd" d="M357.051 111.363C356.781 112.253 356.669 113.204 356.194 114.018C355.578 115.099 354.506 115.19 353.36 114.46C353.285 114.414 353.22 114.338 353.136 114.308C352.474 114.026 351.803 113.752 351.132 113.478C351.029 114.14 350.908 114.794 350.824 115.456C350.805 115.609 350.908 115.768 350.964 115.928C351.989 119.093 350.488 120.836 346.405 120.98C345.091 121.034 343.73 120.744 342.443 120.44C340.56 119.991 340.131 120.113 339.693 121.612C339.18 123.385 337.819 123.986 335.358 123.628C333.14 123.308 330.912 123.004 328.674 122.829C327.285 122.715 325.868 122.852 324.47 122.882C322.913 122.92 322.093 122.38 322.009 121.117C321.962 120.394 322.111 119.656 322.167 118.934C322.279 117.64 322.466 116.347 322.466 115.061C322.466 113.547 322.867 112.778 324.703 112.459C326.232 112.2 327.882 112.223 329.448 112.367C331.331 112.527 333.168 113.136 335.051 113.181C336.477 113.212 338.034 112.854 339.311 112.322C340.597 111.797 341.483 111.721 342.499 112.58C342.9 112.915 343.571 113.052 344.112 113.273C344.382 112.778 344.69 112.291 344.886 111.774C345.007 111.477 344.914 111.127 344.932 110.8C345.026 109.096 345.314 108.822 347.412 108.441C349.323 108.099 351.234 107.764 353.145 107.437C355.28 107.072 356.11 107.498 356.548 109.248C356.716 109.925 356.753 110.617 356.855 111.31C356.921 111.325 356.986 111.34 357.051 111.355" fill="url(#paint1_linear_1091_4344)"/>
<path fill-rule="evenodd" clip-rule="evenodd" d="M347.962 129.121C347.757 130.194 347.421 131.267 347.375 132.347C347.337 133.291 346.862 133.55 345.818 133.519C344.475 133.481 343.133 133.512 341.763 133.512C341.744 133.694 341.688 133.816 341.707 133.922C342.173 136.053 341.623 136.715 339.031 137.362C335.629 138.206 332.235 139.066 328.861 139.971C325.682 140.823 324.321 139.918 324.489 137.217C324.554 136.045 324.069 134.851 323.817 133.671C323.631 132.766 323.202 131.845 323.277 130.955C323.37 129.753 324.694 128.984 326.53 128.87C330.026 128.657 333.531 128.467 337.027 128.3C337.465 128.277 337.941 128.345 338.351 128.467C340.206 129.015 341.697 128.52 341.819 126.938C342.061 123.849 345.324 123.499 347.701 122.357C348.083 122.175 348.997 122.449 349.491 122.715C351.57 123.856 353.602 125.043 355.616 126.268C357.107 127.181 357.294 128.102 356.194 129.312C355.485 130.088 354.683 130.864 353.751 131.45C351.999 132.545 350.283 132.089 349.407 130.453C349.146 129.958 348.792 129.502 348.484 129.03C348.298 129.061 348.12 129.091 347.953 129.129" fill="url(#paint2_linear_1091_4344)"/>
<path fill-rule="evenodd" clip-rule="evenodd" d="M329.662 96.7165C334.072 96.7698 337.894 97.4393 341.325 99.2806C341.446 99.3415 341.576 99.4099 341.716 99.4632C344.205 100.536 345.864 99.7751 345.967 97.5154C346.079 95.2633 346.909 94.9057 349.323 95.9709C349.994 96.2676 350.833 96.4958 351.579 96.473C353.266 96.4122 354.338 97.0437 355.131 98.1545C355.355 98.4741 355.55 98.8012 355.709 99.1436C356.995 101.799 356.753 102.126 353.304 102.134C351.644 102.134 350.591 102.682 349.92 103.929C348.643 106.319 348.568 106.341 345.417 106.09C344.065 105.984 343.04 106.387 342.21 107.148C340.765 108.449 339.152 108.601 337.046 108.236C333.727 107.665 330.334 107.292 326.94 107.11C322.615 106.882 321.804 105.953 323.426 102.651C324.172 101.152 324.61 99.5545 325.393 98.0708C325.673 97.5458 326.484 97.0513 327.183 96.8687C328.059 96.6404 329.066 96.7393 329.662 96.7165Z" fill="url(#paint3_linear_1091_4344)"/>
<path fill-rule="evenodd" clip-rule="evenodd" d="M347.337 86.4982C347.533 86.0645 347.804 85.5775 348.009 85.0677C348.4 84.0254 349.09 83.2265 350.526 83.0439C351.905 82.8689 352.614 83.6145 353.322 84.383C354.189 85.3264 355.056 86.2623 355.988 87.1601C357.172 88.3014 356.772 90.8807 355.159 91.6416C354.898 91.7709 354.189 91.5807 353.947 91.3524C353.397 90.8351 353.061 90.1655 352.539 89.6253C352.232 89.3057 351.635 88.8644 351.299 88.9329C350.833 89.0242 350.386 89.4883 350.106 89.8764C349.817 90.2872 349.771 90.8046 349.565 91.2611C349.053 92.4329 348.307 92.6763 346.881 92.1742C344.951 91.4818 344.811 91.497 343.972 93.0492C343.347 94.2057 342.322 94.5176 340.924 94.1828C338.761 93.6655 336.645 93.0339 334.454 92.6079C333 92.3263 331.462 92.3796 329.97 92.2122C327.901 91.9763 327.276 90.8198 328.218 89.2905C328.991 88.0351 329.7 86.7493 330.306 85.4406C331.014 83.9189 332.291 83.47 334.566 83.9949C337.064 84.5732 339.581 85.1515 342.108 85.6308C342.965 85.7982 343.925 85.5927 344.802 85.7221C345.538 85.8286 346.228 86.1558 347.328 86.5134" fill="url(#paint4_linear_1091_4344)"/>
<path fill-rule="evenodd" clip-rule="evenodd" d="M352.241 50.3422C352.362 50.1748 352.539 49.8248 352.838 49.5585C353.304 49.14 353.844 48.4629 354.357 48.4629C355 48.4629 355.97 48.9042 356.249 49.3683C356.939 50.5096 357.685 51.3922 359.279 51.8639C359.783 52.0161 360.211 53.0356 360.146 53.6139C359.969 55.1813 360.286 56.6041 361.246 57.9584C361.414 58.2019 361.628 58.529 361.545 58.7497C361.377 59.2062 361.013 59.6247 360.733 60.0584C360.333 59.7997 359.941 59.541 359.54 59.2823C359.503 59.2595 359.484 59.2138 359.466 59.1758C358.878 58.1106 358.608 56.7182 357.611 56.0639C356.669 55.44 354.944 55.6454 353.593 55.3867C352.539 55.1813 352.409 55.7367 352.194 56.2845C351.598 57.8747 351.402 57.7986 349.444 57.7758C347.02 57.7454 344.587 58.0421 342.154 58.2247C341.567 58.2703 340.989 58.4758 340.402 58.5671C339.413 58.7116 338.882 58.4453 338.91 57.5475C338.966 55.6073 339.274 53.6519 338.22 51.7726C337.829 51.0726 338.388 50.5324 339.274 50.2813C339.46 50.2205 339.665 50.1444 339.852 50.1596C343.329 50.4411 346.731 50.1976 350.087 49.3455C350.572 49.2161 351.383 49.9237 352.241 50.3422Z" fill="url(#paint5_linear_1091_4344)"/>
<path fill-rule="evenodd" clip-rule="evenodd" d="M356.371 81.8721C356.184 81.195 356.063 80.7765 355.933 80.358C355.634 79.4754 355.01 79.0265 353.798 78.9428C352.614 78.8668 351.467 78.532 350.302 78.3189C348.615 78.0146 348.12 78.3037 347.906 79.6809C347.598 81.6591 346.545 82.1461 344.177 81.6287C341.287 80.9896 338.36 80.4341 335.424 79.9396C333.168 79.5591 332.496 78.4559 333.746 76.8885C334.762 75.6179 335.796 74.3929 335.638 72.7342C335.619 72.4603 336.449 71.8517 336.831 71.8821C337.801 71.9506 338.742 72.3082 339.693 72.5364C341.269 72.9092 342.835 73.4342 344.438 73.594C345.38 73.6929 346.536 73.3658 347.375 72.9473C348.298 72.4756 348.922 72.4603 349.565 73.1223C350.414 73.9744 351.337 73.9897 352.483 73.4951C354.394 72.681 354.683 72.7799 355.849 74.2788C356.166 74.6897 356.436 75.1386 356.818 75.519C358.683 77.3527 357.555 79.3081 357.172 81.233C357.135 81.4156 356.781 81.5526 356.361 81.8798" fill="url(#paint6_linear_1091_4344)"/>
<path fill-rule="evenodd" clip-rule="evenodd" d="M359.186 68.4887C359.037 69.6223 358.925 70.756 358.711 71.8745C358.655 72.1408 358.282 72.3766 358.067 72.6201C357.76 72.4375 357.275 72.3006 357.182 72.0571C356.818 71.1821 356.538 70.2767 356.315 69.3636C356.128 68.5876 355.886 67.918 354.665 67.9713C354.525 67.9713 354.32 67.9713 354.227 67.9028C352.567 66.5941 351.654 67.4539 350.554 68.5647C350.059 69.0669 348.969 69.3028 348.111 69.4169C347.356 69.5234 346.536 69.2495 345.734 69.2115C343.636 69.0821 341.548 68.9604 339.46 68.8843C337.633 68.8234 336.775 68.1234 337.419 66.8072C338.23 65.1713 338.164 63.5735 337.941 61.8996C337.773 60.6138 338.407 60.2714 339.777 60.9333C342.443 62.2268 345.175 62.1811 348.046 61.542C348.596 61.4127 349.407 61.5877 349.91 61.8616C351.197 62.5692 351.523 62.5692 352.418 61.504C352.558 61.3366 352.632 61.1007 352.828 61.0018C353.304 60.7659 353.891 60.3703 354.32 60.4464C354.758 60.5301 355.289 61.0779 355.364 61.4735C355.513 62.2877 356.249 62.6072 356.772 63.155C357.825 64.2431 358.477 65.605 359.13 66.9061C359.354 67.3474 359.102 67.9484 359.065 68.481C359.102 68.481 359.139 68.481 359.177 68.4887" fill="url(#paint7_linear_1091_4344)"/>
<path fill-rule="evenodd" clip-rule="evenodd" d="M337.969 44.4455C337.969 43.9966 337.969 43.5477 337.969 43.1064C337.969 41.9499 338.733 41.326 340.085 41.326C342.331 41.326 344.354 40.5652 346.47 40.2152C348.363 39.9108 349.537 39.6902 350.507 38.1761C351.262 36.9739 353.164 37.1413 354.581 37.9859C355.112 38.2978 355.821 38.4804 356.492 38.5565C357.592 38.6706 358.328 39.0739 358.487 39.9413C358.785 41.501 359.745 42.7336 361.032 43.8521C361.433 44.2021 361.843 44.6358 361.973 45.0923C362.085 45.4803 361.815 45.9444 361.722 46.3857C361.181 46.2716 360.454 46.3097 360.146 46.0357C359.456 45.4042 358.962 44.6358 358.422 43.8977C357.788 43.0456 357.042 42.688 355.69 42.9086C354.469 43.0988 353.117 42.9999 351.896 42.7869C350.619 42.5662 350.143 42.8934 349.948 43.8597C349.547 45.8912 349.5 45.8379 347.03 46.302C344.988 46.6901 342.984 47.2455 340.961 47.6792C339.031 48.0901 338.248 47.6335 338.052 46.0357C337.997 45.5107 338.043 44.9782 338.043 44.4532H337.978L337.969 44.4455Z" fill="url(#paint8_linear_1091_4344)"/>
<path fill-rule="evenodd" clip-rule="evenodd" d="M346.769 32.1881C347.198 31.5794 347.449 31.3208 347.58 31.0164C348.391 29.1067 350.815 28.4828 352.427 29.9893C353.621 31.1077 354.991 31.7316 356.585 32.2414C357.21 32.4468 357.853 32.7816 358.31 33.1925C358.664 33.512 358.739 34.0294 358.944 34.4631C358.384 34.524 357.769 34.7294 357.284 34.6077C356.427 34.4022 355.644 34.0066 354.86 33.6566C352.362 32.5305 352.101 32.599 351.262 34.7979C350.964 35.5739 350.358 35.8707 349.342 35.8555C348.698 35.8555 348.046 36.0913 347.412 36.2359C346.694 36.4033 345.995 36.6239 345.277 36.7837C343.59 37.1641 341.884 37.4837 340.225 37.9174C338.696 38.313 338.267 38.1609 337.903 36.8902C337.661 36.0609 337.437 35.224 337.092 34.4251C336.682 33.4664 337.036 32.7664 338.127 32.4468C339.246 32.1197 340.448 31.9903 341.614 31.7544C342.481 31.5794 343.385 31.4349 344.196 31.1534C345.342 30.7425 346.368 30.3392 346.769 32.1957" fill="url(#paint9_linear_1091_4344)"/>
<path fill-rule="evenodd" clip-rule="evenodd" d="M334.575 25.5991C334.939 25.2795 335.349 24.6176 335.974 24.435C337.614 23.9709 339.348 23.7502 341.026 23.3774C341.753 23.2176 342.574 23.0578 343.142 22.6926C344.783 21.6502 345.892 21.9774 346.536 23.6057C346.769 24.2067 347.459 24.8763 348.167 25.1502C349.873 25.8197 351.728 26.223 353.462 26.8545C353.956 27.0295 354.208 27.623 354.562 28.0338C353.956 28.1404 353.257 28.4447 352.735 28.323C350.665 27.836 348.643 27.2273 346.62 26.6415C345.566 26.3371 344.718 26.3752 343.953 27.1665C343.581 27.5545 342.909 27.7828 342.341 27.9958C340.896 28.5284 339.404 28.9697 337.997 29.5403C337.102 29.898 336.365 29.8523 335.992 29.1219C335.47 28.0795 335.125 26.9839 334.585 25.5991" fill="url(#paint10_linear_1091_4344)"/>
<path fill-rule="evenodd" clip-rule="evenodd" d="M342.303 15.8373C342.508 15.2438 342.546 14.909 342.732 14.6427C342.984 14.2851 343.31 13.7297 343.655 13.7145C344.14 13.6841 344.737 14.0036 345.147 14.2851C345.426 14.4677 345.594 14.8482 345.641 15.1525C345.92 17.0242 347.421 17.9449 349.426 18.5536C350.432 18.8579 351.504 19.2307 351.346 20.7372C350.274 20.4024 349.342 20.1514 348.447 19.8242C347.309 19.4057 346.219 18.9035 345.091 18.4851C344.196 18.1503 343.515 18.4242 342.825 18.9872C342.266 19.4361 341.502 19.8014 340.747 20.0296C339.115 20.5318 337.409 20.8894 335.778 21.3839C333.988 21.9165 333.438 21.6426 333.289 20.0601C333.242 19.4514 333.093 18.8503 332.981 18.2492C332.823 17.3818 333.056 16.8264 334.361 16.8568C336.197 16.8949 337.81 16.446 339.003 15.2286C340.262 13.9504 341.213 14.8482 342.303 15.8373Z" fill="url(#paint11_linear_1091_4344)"/>
<path fill-rule="evenodd" clip-rule="evenodd" d="M339.413 8.51023C340.42 6.98091 340.989 7.01134 342.527 8.52545C343.385 9.36239 344.606 9.97869 345.706 10.6482C346.424 11.0819 347.281 11.3634 347.971 11.82C348.223 11.9874 348.195 12.4439 348.298 12.771C347.887 12.8167 347.412 12.9917 347.067 12.8852C346.321 12.6569 345.641 12.2917 344.942 11.9721C343.32 11.2493 341.753 11.1048 340.131 12.033C339.581 12.345 338.845 12.6036 338.192 12.6113C336.719 12.6265 335.489 12.9993 334.296 13.6917C333.14 14.3612 331.974 13.9732 331.685 12.8319C331.434 11.8504 331.312 10.8156 331.396 9.81891C331.424 9.47652 332.198 9.04283 332.739 8.89066C334.249 8.47219 335.787 8.07654 337.353 7.88633C337.969 7.81024 338.686 8.27437 339.395 8.50262" fill="url(#paint12_linear_1091_4344)"/>
<path fill-rule="evenodd" clip-rule="evenodd" d="M340.737 1.98968C342.779 2.28641 347.393 6.15157 347.589 7.99285C346.797 7.65807 346.191 7.43742 345.631 7.1559C344.121 6.37983 342.63 5.57332 341.129 4.78964C340.924 4.69072 340.653 4.59942 340.42 4.61464C338.211 4.77442 335.983 4.82768 333.811 5.16246C331.807 5.47441 331.126 5.14724 331.331 3.519C331.434 2.71249 331.611 1.90598 331.713 1.10708C331.835 0.201662 332.627 -0.0342035 333.531 0.00383937C334.314 0.0418823 335.079 0.338617 335.871 0.384268C336.719 0.42992 337.624 0.42992 338.425 0.247314C339.74 -0.0646378 340.402 0.361443 340.747 1.99729" fill="url(#paint13_linear_1091_4344)"/>
<path fill-rule="evenodd" clip-rule="evenodd" d="M336.03 59.7084C335.778 59.5638 335.507 59.4421 335.274 59.2823C334.967 59.0768 334.715 58.8029 334.389 58.6279C334.202 58.529 333.857 58.4682 333.662 58.5366C333.177 58.7116 332.757 58.6355 332.329 58.4682C331.862 58.2932 331.406 58.2095 330.874 58.3769C330.39 58.529 330.045 58.2703 330.194 57.8671C330.371 57.3877 330.632 56.916 330.93 56.4823C331.023 56.3454 331.378 56.2465 331.611 56.2541C332.226 56.2845 332.851 56.3758 333.466 56.4671C333.876 56.528 334.1 56.7486 333.988 57.1062C333.885 57.441 334.072 57.6084 334.426 57.7606C335.33 58.1486 336.057 58.666 336.197 59.541C336.141 59.5942 336.095 59.6475 336.039 59.7007" fill="url(#paint14_linear_1091_4344)"/>
</mask>
<g mask="url(#mask0_1091_4344)">
<path fill-rule="evenodd" clip-rule="evenodd" d="M346.554 179.992C344.345 179.992 343.264 179.224 343.357 177.953C343.422 177.132 343.702 176.241 344.177 175.511C345.184 173.974 345.361 172.445 344.783 170.794C344.559 170.17 344.448 169.515 344.345 168.876C344.177 167.842 344.587 166.989 345.52 166.228C347.263 164.836 347.058 162.995 344.988 161.907C344.121 161.45 343.086 161.169 342.08 160.956C338.873 160.271 336.16 158.917 333.941 156.969C333.074 156.223 332.543 155.211 331.909 154.298C331.247 153.347 330.66 152.358 330.017 151.392C328.245 148.729 328.851 146.918 332.151 145.533C334.063 144.727 336.076 144.072 338.052 143.372C340.458 142.513 342.182 141.151 343.208 139.15C343.786 138.031 344.503 136.928 345.389 135.962C346.806 134.409 348.391 134.356 350.321 135.497C351.16 135.992 352.11 136.372 353.071 136.684C354.721 137.232 355.066 138.191 353.779 139.195C353.285 139.576 352.642 139.857 352.017 140.101C351.243 140.397 350.339 140.504 349.649 140.877C348.969 141.249 348.475 141.858 347.897 142.36C348.512 142.726 349.062 143.19 349.733 143.418C351.43 143.989 352.008 144.635 351.831 146.119C351.812 146.279 351.793 146.446 351.728 146.598C350.871 148.729 351.821 150.258 353.938 151.582C354.879 152.168 355.56 153.104 356.138 153.979C356.669 154.778 356.259 155.554 355.383 156.139C353.406 157.471 353.332 158.239 354.525 160.119C355.392 161.473 356.268 162.888 356.669 164.364C357.443 167.233 356.613 170.025 354.767 172.467C353.071 174.704 350.982 176.759 348.894 178.783C348.214 179.445 347.03 179.757 346.554 180" fill="#FEED01"/>
<path fill-rule="evenodd" clip-rule="evenodd" d="M357.051 111.363C356.781 112.253 356.669 113.204 356.194 114.018C355.578 115.099 354.506 115.19 353.36 114.46C353.285 114.414 353.22 114.338 353.136 114.308C352.474 114.026 351.803 113.752 351.132 113.478C351.029 114.14 350.908 114.794 350.824 115.456C350.805 115.609 350.908 115.768 350.964 115.928C351.989 119.093 350.488 120.836 346.405 120.98C345.091 121.034 343.73 120.744 342.443 120.44C340.56 119.991 340.131 120.113 339.693 121.612C339.18 123.385 337.819 123.986 335.358 123.628C333.14 123.308 330.912 123.004 328.674 122.829C327.285 122.715 325.868 122.852 324.47 122.882C322.913 122.92 322.093 122.38 322.009 121.117C321.962 120.394 322.111 119.656 322.167 118.934C322.279 117.64 322.466 116.347 322.466 115.061C322.466 113.547 322.867 112.778 324.703 112.459C326.232 112.2 327.882 112.223 329.448 112.367C331.331 112.527 333.168 113.136 335.051 113.181C336.477 113.212 338.034 112.854 339.311 112.322C340.597 111.797 341.483 111.721 342.499 112.58C342.9 112.915 343.571 113.052 344.112 113.273C344.382 112.778 344.69 112.291 344.886 111.774C345.007 111.477 344.914 111.127 344.932 110.8C345.026 109.096 345.314 108.822 347.412 108.441C349.323 108.099 351.234 107.764 353.145 107.437C355.28 107.072 356.11 107.498 356.548 109.248C356.716 109.925 356.753 110.617 356.855 111.31C356.921 111.325 356.986 111.34 357.051 111.355" fill="#FEED01"/>
<path fill-rule="evenodd" clip-rule="evenodd" d="M347.962 129.121C347.757 130.194 347.421 131.267 347.375 132.347C347.337 133.291 346.862 133.55 345.818 133.519C344.475 133.481 343.133 133.512 341.763 133.512C341.744 133.694 341.688 133.816 341.707 133.922C342.173 136.053 341.623 136.715 339.031 137.362C335.629 138.206 332.235 139.066 328.861 139.971C325.682 140.823 324.321 139.918 324.489 137.217C324.554 136.045 324.069 134.851 323.817 133.671C323.631 132.766 323.202 131.845 323.277 130.955C323.37 129.753 324.694 128.984 326.53 128.87C330.026 128.657 333.531 128.467 337.027 128.3C337.465 128.277 337.941 128.345 338.351 128.467C340.206 129.015 341.697 128.52 341.819 126.938C342.061 123.849 345.324 123.499 347.701 122.357C348.083 122.175 348.997 122.449 349.491 122.715C351.57 123.856 353.602 125.043 355.616 126.268C357.107 127.181 357.294 128.102 356.194 129.312C355.485 130.088 354.683 130.864 353.751 131.45C351.999 132.545 350.283 132.089 349.407 130.453C349.146 129.958 348.792 129.502 348.484 129.03C348.298 129.061 348.12 129.091 347.953 129.129" fill="#FEED01"/>
<path fill-rule="evenodd" clip-rule="evenodd" d="M329.662 96.7165C334.072 96.7698 337.894 97.4393 341.325 99.2806C341.446 99.3415 341.576 99.4099 341.716 99.4632C344.205 100.536 345.864 99.7751 345.967 97.5154C346.079 95.2633 346.909 94.9057 349.323 95.9709C349.994 96.2676 350.833 96.4958 351.579 96.473C353.266 96.4122 354.338 97.0437 355.131 98.1545C355.355 98.4741 355.55 98.8012 355.709 99.1436C356.995 101.799 356.753 102.126 353.304 102.134C351.644 102.134 350.591 102.682 349.92 103.929C348.643 106.319 348.568 106.341 345.417 106.09C344.065 105.984 343.04 106.387 342.21 107.148C340.765 108.449 339.152 108.601 337.046 108.236C333.727 107.665 330.334 107.292 326.94 107.11C322.615 106.882 321.804 105.953 323.426 102.651C324.172 101.152 324.61 99.5545 325.393 98.0708C325.673 97.5458 326.484 97.0513 327.183 96.8687C328.059 96.6404 329.066 96.7393 329.662 96.7165Z" fill="#FEED01"/>
<path fill-rule="evenodd" clip-rule="evenodd" d="M347.337 86.4982C347.533 86.0645 347.804 85.5775 348.009 85.0677C348.4 84.0254 349.09 83.2265 350.526 83.0439C351.905 82.8689 352.614 83.6145 353.322 84.383C354.189 85.3264 355.056 86.2623 355.988 87.1601C357.172 88.3014 356.772 90.8807 355.159 91.6416C354.898 91.7709 354.189 91.5807 353.947 91.3524C353.397 90.8351 353.061 90.1655 352.539 89.6253C352.232 89.3057 351.635 88.8644 351.299 88.9329C350.833 89.0242 350.386 89.4883 350.106 89.8764C349.817 90.2872 349.771 90.8046 349.565 91.2611C349.053 92.4329 348.307 92.6763 346.881 92.1742C344.951 91.4818 344.811 91.497 343.972 93.0492C343.347 94.2057 342.322 94.5176 340.924 94.1828C338.761 93.6655 336.645 93.0339 334.454 92.6079C333 92.3263 331.462 92.3796 329.97 92.2122C327.901 91.9763 327.276 90.8198 328.218 89.2905C328.991 88.0351 329.7 86.7493 330.306 85.4406C331.014 83.9189 332.291 83.4699 334.566 83.9949C337.064 84.5732 339.581 85.1515 342.108 85.6308C342.965 85.7982 343.925 85.5927 344.802 85.7221C345.538 85.8286 346.228 86.1558 347.328 86.5134" fill="#FEED01"/>
<path fill-rule="evenodd" clip-rule="evenodd" d="M352.241 50.3422C352.362 50.1748 352.539 49.8248 352.838 49.5585C353.304 49.14 353.844 48.4629 354.357 48.4629C355 48.4629 355.97 48.9042 356.249 49.3683C356.939 50.5096 357.685 51.3922 359.279 51.8639C359.783 52.0161 360.211 53.0356 360.146 53.6139C359.969 55.1813 360.286 56.6041 361.246 57.9584C361.414 58.2019 361.628 58.529 361.545 58.7497C361.377 59.2062 361.013 59.6247 360.733 60.0584C360.333 59.7997 359.941 59.541 359.54 59.2823C359.503 59.2595 359.484 59.2138 359.466 59.1758C358.878 58.1106 358.608 56.7182 357.611 56.0639C356.669 55.4399 354.944 55.6454 353.593 55.3867C352.539 55.1813 352.409 55.7367 352.194 56.2845C351.598 57.8747 351.402 57.7986 349.444 57.7758C347.02 57.7454 344.587 58.0421 342.154 58.2247C341.567 58.2703 340.989 58.4758 340.402 58.5671C339.413 58.7116 338.882 58.4453 338.91 57.5475C338.966 55.6073 339.274 53.6519 338.22 51.7726C337.829 51.0726 338.388 50.5324 339.274 50.2813C339.46 50.2205 339.665 50.1444 339.852 50.1596C343.329 50.4411 346.731 50.1976 350.087 49.3455C350.572 49.2161 351.383 49.9237 352.241 50.3422Z" fill="#FEED01"/>
<path fill-rule="evenodd" clip-rule="evenodd" d="M356.371 81.8721C356.184 81.195 356.063 80.7765 355.933 80.358C355.634 79.4754 355.01 79.0265 353.798 78.9428C352.614 78.8668 351.467 78.532 350.302 78.3189C348.615 78.0146 348.12 78.3037 347.906 79.6809C347.598 81.6591 346.545 82.1461 344.177 81.6287C341.287 80.9896 338.36 80.4341 335.424 79.9396C333.168 79.5591 332.496 78.4559 333.746 76.8885C334.762 75.6179 335.796 74.3929 335.638 72.7342C335.619 72.4603 336.449 71.8517 336.831 71.8821C337.801 71.9506 338.742 72.3082 339.693 72.5364C341.269 72.9092 342.835 73.4342 344.438 73.594C345.38 73.6929 346.536 73.3658 347.375 72.9473C348.298 72.4755 348.922 72.4603 349.565 73.1223C350.414 73.9744 351.337 73.9897 352.483 73.4951C354.394 72.681 354.683 72.7799 355.849 74.2788C356.166 74.6897 356.436 75.1386 356.818 75.519C358.683 77.3527 357.555 79.3081 357.172 81.233C357.135 81.4156 356.781 81.5526 356.361 81.8798" fill="#FEED01"/>
<path fill-rule="evenodd" clip-rule="evenodd" d="M359.186 68.4887C359.037 69.6223 358.925 70.756 358.711 71.8745C358.655 72.1408 358.282 72.3766 358.067 72.6201C357.76 72.4375 357.275 72.3006 357.182 72.0571C356.818 71.1821 356.538 70.2767 356.315 69.3636C356.128 68.5876 355.886 67.918 354.665 67.9713C354.525 67.9713 354.32 67.9713 354.227 67.9028C352.567 66.5941 351.654 67.4539 350.554 68.5647C350.059 69.0669 348.969 69.3028 348.111 69.4169C347.356 69.5234 346.536 69.2495 345.734 69.2115C343.636 69.0821 341.548 68.9604 339.46 68.8843C337.633 68.8234 336.775 68.1234 337.419 66.8072C338.23 65.1713 338.164 63.5735 337.941 61.8996C337.773 60.6138 338.407 60.2714 339.777 60.9333C342.443 62.2268 345.175 62.1811 348.046 61.542C348.596 61.4127 349.407 61.5877 349.91 61.8616C351.197 62.5692 351.523 62.5692 352.418 61.504C352.558 61.3366 352.632 61.1007 352.828 61.0018C353.304 60.7659 353.891 60.3703 354.32 60.4464C354.758 60.5301 355.289 61.0779 355.364 61.4735C355.513 62.2877 356.249 62.6072 356.772 63.155C357.825 64.2431 358.477 65.605 359.13 66.9061C359.354 67.3474 359.102 67.9484 359.065 68.481C359.102 68.481 359.139 68.481 359.177 68.4887" fill="#FEED01"/>
<path fill-rule="evenodd" clip-rule="evenodd" d="M337.969 44.4455C337.969 43.9966 337.969 43.5477 337.969 43.1064C337.969 41.9499 338.733 41.326 340.085 41.326C342.331 41.326 344.354 40.5652 346.47 40.2152C348.363 39.9108 349.537 39.6902 350.507 38.1761C351.262 36.9739 353.164 37.1413 354.581 37.9859C355.112 38.2978 355.821 38.4804 356.492 38.5565C357.592 38.6706 358.328 39.0739 358.487 39.9413C358.785 41.501 359.745 42.7336 361.032 43.8521C361.433 44.2021 361.843 44.6358 361.973 45.0923C362.085 45.4803 361.815 45.9444 361.722 46.3857C361.181 46.2716 360.454 46.3097 360.146 46.0357C359.456 45.4042 358.962 44.6358 358.422 43.8977C357.788 43.0456 357.042 42.688 355.69 42.9086C354.469 43.0988 353.117 42.9999 351.896 42.7869C350.619 42.5662 350.143 42.8934 349.948 43.8597C349.547 45.8912 349.5 45.8379 347.03 46.302C344.988 46.6901 342.984 47.2455 340.961 47.6792C339.031 48.0901 338.248 47.6335 338.052 46.0357C337.997 45.5107 338.043 44.9781 338.043 44.4532H337.978L337.969 44.4455Z" fill="#FEED01"/>
<path fill-rule="evenodd" clip-rule="evenodd" d="M346.769 32.1881C347.198 31.5794 347.449 31.3208 347.58 31.0164C348.391 29.1067 350.815 28.4828 352.427 29.9893C353.621 31.1077 354.991 31.7316 356.585 32.2414C357.21 32.4468 357.853 32.7816 358.31 33.1925C358.664 33.512 358.739 34.0294 358.944 34.4631C358.384 34.524 357.769 34.7294 357.284 34.6077C356.427 34.4022 355.644 34.0066 354.86 33.6566C352.362 32.5305 352.101 32.599 351.262 34.7979C350.964 35.5739 350.358 35.8707 349.342 35.8555C348.698 35.8555 348.046 36.0913 347.412 36.2359C346.694 36.4033 345.995 36.6239 345.277 36.7837C343.59 37.1641 341.884 37.4837 340.225 37.9174C338.696 38.313 338.267 38.1609 337.903 36.8902C337.661 36.0609 337.437 35.224 337.092 34.4251C336.682 33.4664 337.036 32.7664 338.127 32.4468C339.246 32.1197 340.448 31.9903 341.614 31.7544C342.481 31.5794 343.385 31.4349 344.196 31.1534C345.342 30.7425 346.368 30.3392 346.769 32.1957" fill="#FEED01"/>
<path fill-rule="evenodd" clip-rule="evenodd" d="M334.575 25.5991C334.939 25.2795 335.349 24.6176 335.974 24.435C337.614 23.9709 339.348 23.7502 341.026 23.3774C341.753 23.2176 342.574 23.0578 343.142 22.6926C344.783 21.6502 345.892 21.9774 346.536 23.6057C346.769 24.2067 347.459 24.8763 348.167 25.1502C349.873 25.8197 351.728 26.223 353.462 26.8545C353.956 27.0295 354.208 27.623 354.562 28.0338C353.956 28.1404 353.257 28.4447 352.735 28.323C350.665 27.836 348.643 27.2273 346.62 26.6415C345.566 26.3371 344.718 26.3752 343.953 27.1665C343.581 27.5545 342.909 27.7828 342.341 27.9958C340.896 28.5284 339.404 28.9697 337.997 29.5403C337.102 29.898 336.365 29.8523 335.992 29.1219C335.47 28.0795 335.125 26.9839 334.585 25.5991" fill="#FEED01"/>
<path fill-rule="evenodd" clip-rule="evenodd" d="M342.303 15.8373C342.508 15.2438 342.546 14.909 342.732 14.6427C342.984 14.2851 343.31 13.7297 343.655 13.7145C344.14 13.6841 344.737 14.0036 345.147 14.2851C345.426 14.4677 345.594 14.8482 345.641 15.1525C345.92 17.0242 347.421 17.9449 349.426 18.5536C350.432 18.8579 351.504 19.2307 351.346 20.7372C350.274 20.4024 349.342 20.1514 348.447 19.8242C347.309 19.4057 346.219 18.9035 345.091 18.4851C344.196 18.1503 343.515 18.4242 342.825 18.9872C342.266 19.4361 341.502 19.8014 340.747 20.0296C339.115 20.5318 337.409 20.8894 335.778 21.3839C333.988 21.9165 333.438 21.6426 333.289 20.0601C333.242 19.4514 333.093 18.8503 332.981 18.2492C332.823 17.3818 333.056 16.8264 334.361 16.8568C336.197 16.8949 337.81 16.446 339.003 15.2286C340.262 13.9504 341.213 14.8482 342.303 15.8373Z" fill="#FEED01"/>
<path fill-rule="evenodd" clip-rule="evenodd" d="M339.413 8.51023C340.42 6.98091 340.989 7.01134 342.527 8.52545C343.385 9.36239 344.606 9.97869 345.706 10.6482C346.424 11.0819 347.281 11.3634 347.971 11.82C348.223 11.9874 348.195 12.4439 348.298 12.771C347.887 12.8167 347.412 12.9917 347.067 12.8852C346.321 12.6569 345.641 12.2917 344.942 11.9721C343.32 11.2493 341.753 11.1048 340.131 12.033C339.581 12.345 338.845 12.6036 338.192 12.6113C336.719 12.6265 335.489 12.9993 334.296 13.6917C333.14 14.3612 331.974 13.9732 331.685 12.8319C331.434 11.8504 331.312 10.8156 331.396 9.81891C331.424 9.47652 332.198 9.04283 332.739 8.89066C334.249 8.47219 335.787 8.07654 337.353 7.88633C337.969 7.81024 338.686 8.27437 339.395 8.50262" fill="#FEED01"/>
<path fill-rule="evenodd" clip-rule="evenodd" d="M340.737 1.98968C342.779 2.28641 347.393 6.15157 347.589 7.99285C346.797 7.65807 346.191 7.43742 345.631 7.1559C344.121 6.37983 342.63 5.57332 341.129 4.78964C340.924 4.69072 340.653 4.59942 340.42 4.61464C338.211 4.77442 335.983 4.82768 333.811 5.16246C331.807 5.47441 331.126 5.14724 331.331 3.519C331.434 2.71249 331.611 1.90598 331.713 1.10708C331.835 0.201662 332.627 -0.0342035 333.531 0.00383937C334.314 0.0418823 335.079 0.338617 335.871 0.384268C336.719 0.42992 337.624 0.42992 338.425 0.247314C339.74 -0.0646378 340.402 0.361443 340.747 1.99729" fill="#FEED01"/>
<path fill-rule="evenodd" clip-rule="evenodd" d="M336.03 59.7084C335.778 59.5638 335.507 59.4421 335.274 59.2823C334.967 59.0768 334.715 58.8029 334.389 58.6279C334.202 58.529 333.857 58.4682 333.662 58.5366C333.177 58.7116 332.757 58.6355 332.329 58.4682C331.862 58.2932 331.406 58.2095 330.874 58.3769C330.39 58.529 330.045 58.2703 330.194 57.8671C330.371 57.3877 330.632 56.916 330.93 56.4823C331.023 56.3454 331.378 56.2465 331.611 56.2541C332.226 56.2845 332.851 56.3758 333.466 56.4671C333.876 56.528 334.1 56.7486 333.988 57.1062C333.885 57.441 334.072 57.6084 334.426 57.7606C335.33 58.1486 336.057 58.666 336.197 59.541C336.141 59.5942 336.095 59.6475 336.039 59.7007" fill="#FEED01"/>
</g>
<path d="M382.88 121.424C384.373 120.869 386.101 120.421 388.064 120.08C390.027 119.739 392.16 119.568 394.464 119.568C396.213 119.568 397.92 119.739 399.584 120.08C401.248 120.379 402.72 120.912 404 121.68C405.323 122.405 406.368 123.387 407.136 124.624C407.947 125.819 408.352 127.333 408.352 129.168C408.352 130.832 407.968 132.261 407.2 133.456C406.432 134.608 405.344 135.568 403.936 136.336C405.813 137.147 407.2 138.213 408.096 139.536C408.992 140.859 409.44 142.544 409.44 144.592C409.44 146.512 409.035 148.133 408.224 149.456C407.413 150.736 406.325 151.781 404.96 152.592C403.595 153.403 402.037 153.979 400.288 154.32C398.539 154.704 396.725 154.896 394.848 154.896C393.739 154.896 392.587 154.832 391.392 154.704C390.197 154.619 389.024 154.469 387.872 154.256C386.763 154.085 385.696 153.851 384.672 153.552C383.648 153.253 382.731 152.933 381.92 152.592L383.648 145.168C384.544 145.509 385.909 145.915 387.744 146.384C389.621 146.853 391.733 147.088 394.08 147.088C397.92 147.088 399.84 146.021 399.84 143.888C399.84 143.163 399.691 142.587 399.392 142.16C399.093 141.691 398.688 141.328 398.176 141.072C397.707 140.816 397.152 140.645 396.512 140.56C395.872 140.475 395.232 140.432 394.592 140.432H387.104V133.648H394.656C396.192 133.648 397.259 133.349 397.856 132.752C398.496 132.112 398.816 131.387 398.816 130.576C398.816 129.765 398.453 129.04 397.728 128.4C397.045 127.717 395.765 127.376 393.888 127.376C392.011 127.376 390.24 127.547 388.576 127.888C386.912 128.229 385.568 128.549 384.544 128.848L382.88 121.424ZM412.968 146.192H417.128C418.322 144.741 419.24 142.949 419.88 140.816C420.562 138.64 421.032 136.357 421.288 133.968C421.586 131.536 421.757 129.125 421.8 126.736C421.842 124.347 421.864 122.213 421.864 120.336H448.104V146.192H453.8V163.6H445.672V154H421.095V163.6H412.968V146.192ZM438.568 146.192V128.144H430.76C430.674 129.637 430.568 131.195 430.44 132.816C430.354 134.395 430.162 135.973 429.864 137.552C429.608 139.088 429.245 140.603 428.776 142.096C428.306 143.589 427.688 144.955 426.92 146.192H438.568ZM491.031 137.104C491.031 139.749 490.647 142.181 489.879 144.4C489.111 146.576 488.001 148.453 486.551 150.032C485.1 151.568 483.351 152.763 481.303 153.616C479.297 154.469 477.036 154.896 474.519 154.896C472.044 154.896 469.783 154.469 467.735 153.616C465.729 152.763 464.001 151.568 462.551 150.032C461.1 148.453 459.969 146.576 459.159 144.4C458.348 142.181 457.943 139.749 457.943 137.104C457.943 134.459 458.348 132.048 459.159 129.872C460.012 127.696 461.164 125.84 462.615 124.304C464.108 122.768 465.857 121.573 467.863 120.72C469.911 119.867 472.129 119.44 474.519 119.44C476.951 119.44 479.169 119.867 481.175 120.72C483.223 121.573 484.972 122.768 486.423 124.304C487.873 125.84 489.004 127.696 489.815 129.872C490.625 132.048 491.031 134.459 491.031 137.104ZM481.303 137.104C481.303 134.16 480.705 131.856 479.511 130.192C478.359 128.485 476.695 127.632 474.519 127.632C472.343 127.632 470.657 128.485 469.463 130.192C468.268 131.856 467.671 134.16 467.671 137.104C467.671 140.048 468.268 142.395 469.463 144.144C470.657 145.851 472.343 146.704 474.519 146.704C476.695 146.704 478.359 145.851 479.511 144.144C480.705 142.395 481.303 140.048 481.303 137.104ZM519.986 137.424C519.986 134.48 519.324 132.133 518.002 130.384C516.679 128.592 514.716 127.696 512.114 127.696C511.26 127.696 510.471 127.739 509.746 127.824C509.02 127.867 508.423 127.931 507.954 128.016V145.232C508.551 145.616 509.319 145.936 510.258 146.192C511.239 146.448 512.22 146.576 513.202 146.576C517.724 146.576 519.986 143.525 519.986 137.424ZM529.714 137.168C529.714 139.771 529.394 142.139 528.754 144.272C528.114 146.405 527.175 148.24 525.938 149.776C524.7 151.312 523.164 152.507 521.33 153.36C519.495 154.213 517.383 154.64 514.994 154.64C513.671 154.64 512.434 154.512 511.282 154.256C510.13 154 509.02 153.637 507.954 153.168V165.84H498.418V121.488C499.271 121.232 500.252 120.997 501.362 120.784C502.471 120.528 503.623 120.315 504.818 120.144C506.055 119.973 507.292 119.845 508.53 119.76C509.81 119.632 511.026 119.568 512.178 119.568C514.951 119.568 517.426 119.995 519.602 120.848C521.778 121.659 523.612 122.832 525.106 124.368C526.599 125.861 527.73 127.696 528.498 129.872C529.308 132.048 529.714 134.48 529.714 137.168ZM568.531 137.104C568.531 139.749 568.147 142.181 567.379 144.4C566.611 146.576 565.501 148.453 564.051 150.032C562.6 151.568 560.851 152.763 558.803 153.616C556.797 154.469 554.536 154.896 552.019 154.896C549.544 154.896 547.283 154.469 545.235 153.616C543.229 152.763 541.501 151.568 540.051 150.032C538.6 148.453 537.469 146.576 536.659 144.4C535.848 142.181 535.443 139.749 535.443 137.104C535.443 134.459 535.848 132.048 536.659 129.872C537.512 127.696 538.664 125.84 540.115 124.304C541.608 122.768 543.357 121.573 545.363 120.72C547.411 119.867 549.629 119.44 552.019 119.44C554.451 119.44 556.669 119.867 558.675 120.72C560.723 121.573 562.472 122.768 563.923 124.304C565.373 125.84 566.504 127.696 567.315 129.872C568.125 132.048 568.531 134.459 568.531 137.104ZM558.803 137.104C558.803 134.16 558.205 131.856 557.011 130.192C555.859 128.485 554.195 127.632 552.019 127.632C549.843 127.632 548.157 128.485 546.963 130.192C545.768 131.856 545.171 134.16 545.171 137.104C545.171 140.048 545.768 142.395 546.963 144.144C548.157 145.851 549.843 146.704 552.019 146.704C554.195 146.704 555.859 145.851 557.011 144.144C558.205 142.395 558.803 140.048 558.803 137.104ZM585.454 146.96C586.051 147.045 586.84 147.131 587.822 147.216C588.846 147.259 589.784 147.28 590.638 147.28C592.771 147.28 594.435 147.024 595.63 146.512C596.824 145.957 597.422 144.976 597.422 143.568C597.422 142.203 596.867 141.264 595.758 140.752C594.691 140.197 593.112 139.92 591.022 139.92H585.454V146.96ZM590.83 133.52C592.408 133.52 593.688 133.328 594.67 132.944C595.651 132.517 596.142 131.621 596.142 130.256C596.142 128.976 595.587 128.101 594.478 127.632C593.368 127.163 591.918 126.928 590.126 126.928C589.528 126.928 588.739 126.971 587.758 127.056C586.819 127.099 586.051 127.163 585.454 127.248V133.52H590.83ZM590.51 154.64C589.315 154.64 588.035 154.597 586.67 154.512C585.304 154.427 583.96 154.299 582.638 154.128C581.315 154 580.056 153.851 578.862 153.68C577.71 153.467 576.728 153.275 575.918 153.104V120.848C576.728 120.677 577.71 120.528 578.862 120.4C580.056 120.229 581.315 120.08 582.638 119.952C583.96 119.824 585.304 119.739 586.67 119.696C588.035 119.611 589.315 119.568 590.51 119.568C593.283 119.568 595.608 119.845 597.486 120.4C599.406 120.955 600.942 121.68 602.094 122.576C603.288 123.472 604.142 124.475 604.654 125.584C605.166 126.693 605.422 127.803 605.422 128.912C605.422 130.405 605.059 131.771 604.333 133.008C603.608 134.245 602.691 135.141 601.582 135.696C602.179 135.952 602.776 136.315 603.374 136.784C604.014 137.253 604.59 137.829 605.102 138.512C605.614 139.152 606.019 139.941 606.318 140.88C606.659 141.776 606.83 142.821 606.83 144.016C606.83 145.381 606.552 146.704 605.998 147.984C605.486 149.264 604.59 150.395 603.31 151.376C602.03 152.357 600.344 153.147 598.254 153.744C596.163 154.341 593.582 154.64 590.51 154.64ZM621.611 104.912C621.696 105.509 621.76 106.128 621.803 106.768C621.846 107.408 621.867 107.877 621.867 108.176C621.867 111.035 621.355 113.765 620.331 116.368C619.307 118.928 618.048 121.104 616.555 122.896L609.835 121.36C610.646 119.525 611.286 117.456 611.755 115.152C612.267 112.848 612.523 110.651 612.523 108.56C612.523 108.475 612.523 108.304 612.523 108.048C612.523 107.749 612.502 107.429 612.459 107.088C612.459 106.704 612.438 106.32 612.395 105.936C612.395 105.552 612.374 105.211 612.331 104.912H621.611ZM648.713 117.776C647.433 117.776 646.196 117.883 645.001 118.096C643.849 118.267 642.825 118.587 641.929 119.056C641.033 119.483 640.308 120.101 639.753 120.912C639.198 121.68 638.921 122.661 638.921 123.856C638.921 126.117 639.71 127.675 641.289 128.528C642.91 129.381 645.3 129.808 648.457 129.808H652.617V117.84C652.105 117.797 651.55 117.776 650.953 117.776C650.356 117.776 649.609 117.776 648.713 117.776ZM649.161 109.2C650.953 109.2 653.044 109.307 655.433 109.52C657.865 109.733 660.254 110.096 662.601 110.608V154H652.617V138.064H649.545C648.99 138.064 648.457 138.064 647.945 138.064C647.433 138.064 646.814 138.021 646.089 137.936C644.681 139.856 643.124 142.267 641.417 145.168C639.753 148.027 638.196 150.971 636.745 154H626.185C626.953 152.251 627.764 150.523 628.617 148.816C629.513 147.109 630.409 145.488 631.305 143.952C632.201 142.416 633.076 141.008 633.929 139.728C634.782 138.405 635.572 137.253 636.297 136.272C635.358 135.845 634.42 135.291 633.481 134.608C632.585 133.883 631.774 133.029 631.049 132.048C630.324 131.067 629.726 129.915 629.257 128.592C628.83 127.227 628.617 125.669 628.617 123.92C628.617 121.488 629.086 119.355 630.025 117.52C631.006 115.685 632.372 114.149 634.121 112.912C635.913 111.675 638.068 110.757 640.585 110.16C643.145 109.52 646.004 109.2 649.161 109.2Z" fill="#FEED01"/>
<defs>
<linearGradient id="paint0_linear_1091_4344" x1="342.606" y1="-3.2103e-09" x2="341.988" y2="180" gradientUnits="userSpaceOnUse">
<stop stop-opacity="0"/>
<stop offset="1" stop-color="white"/>
</linearGradient>
<linearGradient id="paint1_linear_1091_4344" x1="342.606" y1="-3.2103e-09" x2="341.988" y2="180" gradientUnits="userSpaceOnUse">
<stop stop-opacity="0"/>
<stop offset="1" stop-color="white"/>
</linearGradient>
<linearGradient id="paint2_linear_1091_4344" x1="342.606" y1="-3.2103e-09" x2="341.988" y2="180" gradientUnits="userSpaceOnUse">
<stop stop-opacity="0"/>
<stop offset="1" stop-color="white"/>
</linearGradient>
<linearGradient id="paint3_linear_1091_4344" x1="342.606" y1="-3.2103e-09" x2="341.988" y2="180" gradientUnits="userSpaceOnUse">
<stop stop-opacity="0"/>
<stop offset="1" stop-color="white"/>
</linearGradient>
<linearGradient id="paint4_linear_1091_4344" x1="342.606" y1="-3.2103e-09" x2="341.988" y2="180" gradientUnits="userSpaceOnUse">
<stop stop-opacity="0"/>
<stop offset="1" stop-color="white"/>
</linearGradient>
<linearGradient id="paint5_linear_1091_4344" x1="342.606" y1="-3.2103e-09" x2="341.988" y2="180" gradientUnits="userSpaceOnUse">
<stop stop-opacity="0"/>
<stop offset="1" stop-color="white"/>
</linearGradient>
<linearGradient id="paint6_linear_1091_4344" x1="342.606" y1="-3.2103e-09" x2="341.988" y2="180" gradientUnits="userSpaceOnUse">
<stop stop-opacity="0"/>
<stop offset="1" stop-color="white"/>
</linearGradient>
<linearGradient id="paint7_linear_1091_4344" x1="342.606" y1="-3.2103e-09" x2="341.988" y2="180" gradientUnits="userSpaceOnUse">
<stop stop-opacity="0"/>
<stop offset="1" stop-color="white"/>
</linearGradient>
<linearGradient id="paint8_linear_1091_4344" x1="342.606" y1="-3.2103e-09" x2="341.988" y2="180" gradientUnits="userSpaceOnUse">
<stop stop-opacity="0"/>
<stop offset="1" stop-color="white"/>
</linearGradient>
<linearGradient id="paint9_linear_1091_4344" x1="342.606" y1="-3.2103e-09" x2="341.988" y2="180" gradientUnits="userSpaceOnUse">
<stop stop-opacity="0"/>
<stop offset="1" stop-color="white"/>
</linearGradient>
<linearGradient id="paint10_linear_1091_4344" x1="342.606" y1="-3.2103e-09" x2="341.988" y2="180" gradientUnits="userSpaceOnUse">
<stop stop-opacity="0"/>
<stop offset="1" stop-color="white"/>
</linearGradient>
<linearGradient id="paint11_linear_1091_4344" x1="342.606" y1="-3.2103e-09" x2="341.988" y2="180" gradientUnits="userSpaceOnUse">
<stop stop-opacity="0"/>
<stop offset="1" stop-color="white"/>
</linearGradient>
<linearGradient id="paint12_linear_1091_4344" x1="342.606" y1="-3.2103e-09" x2="341.988" y2="180" gradientUnits="userSpaceOnUse">
<stop stop-opacity="0"/>
<stop offset="1" stop-color="white"/>
</linearGradient>
<linearGradient id="paint13_linear_1091_4344" x1="342.606" y1="-3.2103e-09" x2="341.988" y2="180" gradientUnits="userSpaceOnUse">
<stop stop-opacity="0"/>
<stop offset="1" stop-color="white"/>
</linearGradient>
<linearGradient id="paint14_linear_1091_4344" x1="342.606" y1="-3.2103e-09" x2="341.988" y2="180" gradientUnits="userSpaceOnUse">
<stop stop-opacity="0"/>
<stop offset="1" stop-color="white"/>
</linearGradient>
</defs>
</svg>
