<svg width="28" height="20" viewBox="0 0 28 20" fill="none" xmlns="http://www.w3.org/2000/svg">
<path fill-rule="evenodd" clip-rule="evenodd" d="M1.81743 0.0783546C1.68908 0.119083 1.54492 0.167702 1.49707 0.186371C1.43341 0.211153 3.01591 1.85913 7.38511 6.31788C10.6714 9.67157 13.433 12.4634 13.5219 12.522C13.6339 12.5957 13.781 12.6285 14 12.6285C14.2187 12.6285 14.3665 12.5956 14.479 12.522C14.71 12.3707 26.5906 0.23349 26.5389 0.201596C26.5153 0.187149 26.3624 0.135141 26.199 0.086078C25.9302 0.00534329 24.7716 -0.00276919 13.9764 0.000620222C4.20284 0.00367625 2.00867 0.0176785 1.81743 0.0783546ZM0.114297 1.74417C0.000656242 2.11789 0 2.16451 0 9.99845C0 17.8324 0.000656242 17.879 0.114297 18.2527L0.228539 18.6286L4.47557 14.3136L8.72255 9.99845L4.47557 5.68333L0.228539 1.36828L0.114297 1.74417ZM23.5156 5.69228L19.2775 9.99856L23.5245 14.3136L27.7715 18.6286L27.8857 18.2527C27.9993 17.879 28 17.8324 28 9.99845C28 2.2253 27.9985 2.11512 27.8884 1.753C27.8271 1.55114 27.7716 1.386 27.7652 1.386C27.7589 1.386 25.8465 3.3238 23.5156 5.69228ZM5.63888 15.4654C3.31253 17.8292 1.43046 19.7764 1.45649 19.7924C1.48258 19.8085 1.63756 19.8618 1.80097 19.9108C2.06965 19.9915 3.23334 20 14 20C24.7667 20 25.9304 19.9915 26.199 19.9108C26.3624 19.8618 26.5174 19.8085 26.5435 19.7924C26.5695 19.7764 24.6875 17.8292 22.3611 15.4654L18.1314 11.1676L16.7903 12.5195C15.3871 13.9339 15.2043 14.0754 14.5954 14.2179C14.2878 14.2901 13.7122 14.2901 13.4046 14.2179C12.7957 14.0754 12.6129 13.9339 11.2097 12.5195L9.86858 11.1676L5.63888 15.4654Z" fill="#FEED01"/>
</svg>
