<svg width="24" height="24" viewBox="0 0 24 24" fill="none" xmlns="http://www.w3.org/2000/svg">
<path fill-rule="evenodd" clip-rule="evenodd" d="M17.8267 0.0628244C17.0829 0.197815 16.1654 0.597207 15.5849 1.03861C14.7543 1.67019 14.0756 2.62394 13.7595 3.60371C13.2714 5.1166 13.4448 6.2496 14.4517 8.12564C15.1669 9.45839 16.5514 11.3876 17.88 12.903C18.3093 13.3926 18.4617 13.4968 18.7487 13.4968C19.0357 13.4968 19.1881 13.3926 19.6174 12.903C20.946 11.3876 22.3305 9.45839 23.0458 8.12564C24.0526 6.2496 24.2261 5.1166 23.7379 3.60371C23.4736 2.78453 22.9976 2.0354 22.3522 1.42342C21.6055 0.715224 20.6615 0.240624 19.6449 0.0622618C19.1704 -0.0209644 18.2869 -0.02073 17.8267 0.0628244ZM19.3334 3.09714C19.9128 3.24324 20.4802 3.71793 20.7451 4.2782C21.6445 6.17998 19.6836 8.14158 17.7825 7.2419C17.3388 7.03193 16.9622 6.65519 16.7523 6.21139C15.9362 4.48563 17.4753 2.62858 19.3334 3.09714ZM3.9841 7.37993C2.08931 8.13924 0.472937 8.79581 0.392176 8.83899C0.311369 8.88218 0.190112 9.00263 0.122664 9.10673L0 9.29592V16.3831V23.4704L0.106586 23.6286C0.165176 23.7156 0.284324 23.8348 0.371318 23.8934C0.686297 24.1057 0.685641 24.1059 4.21846 22.6897L7.47605 21.3838L7.48791 13.6894C7.49443 9.45749 7.48388 5.99599 7.46448 5.99716C7.44507 5.99833 5.8789 6.62058 3.9841 7.37993ZM9.01096 13.6893L9.02282 21.3836L11.9988 22.5746C13.6356 23.2296 14.9803 23.7656 14.9869 23.7656C14.9935 23.7656 14.999 21.0469 14.999 17.724V11.6824L14.7325 11.3121C13.8352 10.0646 12.9916 8.61492 12.5773 7.60786L12.4789 7.36863L10.7625 6.68182C9.81852 6.30409 9.03557 5.995 9.02264 5.995C9.0097 5.995 9.00445 9.45745 9.01096 13.6893ZM23.8662 9.6473C23.1508 10.9205 20.6581 14.1395 20.0769 14.5406C19.579 14.8842 18.9746 15.0346 18.4323 14.9498C17.7929 14.8499 17.3391 14.5523 16.7186 13.8261L16.4989 13.569V18.7845C16.4989 21.653 16.5094 24 16.5222 24C16.5682 24 23.3703 21.2709 23.5689 21.1727C23.7011 21.1074 23.8118 21.0046 23.8855 20.8789L23.9987 20.6855L23.9868 15.0696L23.9749 9.4537L23.8662 9.6473Z" fill="#FEED01"/>
</svg>
